<mxfile host="app.diagrams.net" modified="2024-04-18T04:40:02.634Z" agent="Mozilla/5.0 (Windows NT 10.0; Win64; x64) AppleWebKit/537.36 (KHTML, like Gecko) Chrome/123.0.0.0 Safari/537.36" etag="HKPSHtHDr7RJdomySV_U" version="24.2.5" type="device">
  <diagram name="Page-1" id="qn7YPqqrGNcqjObkE3kq">
    <mxGraphModel dx="1540" dy="1488" grid="1" gridSize="10" guides="1" tooltips="1" connect="1" arrows="1" fold="1" page="1" pageScale="1" pageWidth="850" pageHeight="1100" math="0" shadow="0">
      <root>
        <mxCell id="0" />
        <mxCell id="1" parent="0" />
        <mxCell id="LAP7pbj2NF0N0nWJ8ouf-742" value="" style="edgeStyle=orthogonalEdgeStyle;rounded=0;orthogonalLoop=1;jettySize=auto;html=1;endArrow=none;endFill=0;startArrow=ERmandOne;startFill=0;" parent="1" source="LAP7pbj2NF0N0nWJ8ouf-751" target="LAP7pbj2NF0N0nWJ8ouf-753" edge="1">
          <mxGeometry relative="1" as="geometry" />
        </mxCell>
        <mxCell id="LAP7pbj2NF0N0nWJ8ouf-743" style="rounded=0;orthogonalLoop=1;jettySize=auto;html=1;exitX=0;exitY=0.25;exitDx=0;exitDy=0;entryX=1;entryY=0.5;entryDx=0;entryDy=0;" parent="1" source="LAP7pbj2NF0N0nWJ8ouf-751" target="LAP7pbj2NF0N0nWJ8ouf-805" edge="1">
          <mxGeometry relative="1" as="geometry" />
        </mxCell>
        <mxCell id="LAP7pbj2NF0N0nWJ8ouf-744" style="rounded=0;orthogonalLoop=1;jettySize=auto;html=1;exitX=0;exitY=0.75;exitDx=0;exitDy=0;" parent="1" source="LAP7pbj2NF0N0nWJ8ouf-751" target="LAP7pbj2NF0N0nWJ8ouf-807" edge="1">
          <mxGeometry relative="1" as="geometry" />
        </mxCell>
        <mxCell id="LAP7pbj2NF0N0nWJ8ouf-745" style="rounded=0;orthogonalLoop=1;jettySize=auto;html=1;exitX=0.25;exitY=0;exitDx=0;exitDy=0;entryX=1;entryY=1;entryDx=0;entryDy=0;" parent="1" source="LAP7pbj2NF0N0nWJ8ouf-751" target="LAP7pbj2NF0N0nWJ8ouf-815" edge="1">
          <mxGeometry relative="1" as="geometry" />
        </mxCell>
        <mxCell id="LAP7pbj2NF0N0nWJ8ouf-746" style="rounded=0;orthogonalLoop=1;jettySize=auto;html=1;exitX=0.5;exitY=0;exitDx=0;exitDy=0;entryX=0.5;entryY=1;entryDx=0;entryDy=0;" parent="1" source="LAP7pbj2NF0N0nWJ8ouf-751" target="LAP7pbj2NF0N0nWJ8ouf-808" edge="1">
          <mxGeometry relative="1" as="geometry" />
        </mxCell>
        <mxCell id="LAP7pbj2NF0N0nWJ8ouf-747" style="rounded=0;orthogonalLoop=1;jettySize=auto;html=1;exitX=1;exitY=0;exitDx=0;exitDy=0;entryX=0;entryY=1;entryDx=0;entryDy=0;" parent="1" source="LAP7pbj2NF0N0nWJ8ouf-751" target="LAP7pbj2NF0N0nWJ8ouf-809" edge="1">
          <mxGeometry relative="1" as="geometry" />
        </mxCell>
        <mxCell id="LAP7pbj2NF0N0nWJ8ouf-748" style="rounded=0;orthogonalLoop=1;jettySize=auto;html=1;exitX=1;exitY=1;exitDx=0;exitDy=0;entryX=0;entryY=0;entryDx=0;entryDy=0;" parent="1" source="LAP7pbj2NF0N0nWJ8ouf-751" target="LAP7pbj2NF0N0nWJ8ouf-816" edge="1">
          <mxGeometry relative="1" as="geometry" />
        </mxCell>
        <mxCell id="LAP7pbj2NF0N0nWJ8ouf-749" style="rounded=0;orthogonalLoop=1;jettySize=auto;html=1;exitX=0.5;exitY=1;exitDx=0;exitDy=0;entryX=0.5;entryY=0;entryDx=0;entryDy=0;" parent="1" source="LAP7pbj2NF0N0nWJ8ouf-751" target="LAP7pbj2NF0N0nWJ8ouf-818" edge="1">
          <mxGeometry relative="1" as="geometry" />
        </mxCell>
        <mxCell id="LAP7pbj2NF0N0nWJ8ouf-750" style="rounded=0;orthogonalLoop=1;jettySize=auto;html=1;exitX=0.25;exitY=1;exitDx=0;exitDy=0;entryX=1;entryY=0;entryDx=0;entryDy=0;" parent="1" source="LAP7pbj2NF0N0nWJ8ouf-751" target="LAP7pbj2NF0N0nWJ8ouf-817" edge="1">
          <mxGeometry relative="1" as="geometry" />
        </mxCell>
        <mxCell id="LAP7pbj2NF0N0nWJ8ouf-751" value="&lt;b style=&quot;border-color: var(--border-color);&quot;&gt;&lt;font style=&quot;border-color: var(--border-color); font-size: 20px;&quot;&gt;NGOs&lt;/font&gt;&lt;/b&gt;" style="rounded=0;whiteSpace=wrap;html=1;" parent="1" vertex="1">
          <mxGeometry x="160.5" y="-350" width="120" height="40" as="geometry" />
        </mxCell>
        <mxCell id="LAP7pbj2NF0N0nWJ8ouf-752" value="" style="edgeStyle=orthogonalEdgeStyle;rounded=0;orthogonalLoop=1;jettySize=auto;html=1;endArrow=ERoneToMany;endFill=0;" parent="1" source="LAP7pbj2NF0N0nWJ8ouf-753" target="LAP7pbj2NF0N0nWJ8ouf-762" edge="1">
          <mxGeometry relative="1" as="geometry" />
        </mxCell>
        <mxCell id="LAP7pbj2NF0N0nWJ8ouf-753" value="have" style="rhombus;whiteSpace=wrap;html=1;rounded=0;" parent="1" vertex="1">
          <mxGeometry x="389.25" y="-360" width="60" height="60" as="geometry" />
        </mxCell>
        <mxCell id="LAP7pbj2NF0N0nWJ8ouf-754" value="" style="edgeStyle=orthogonalEdgeStyle;rounded=0;orthogonalLoop=1;jettySize=auto;html=1;entryX=0.5;entryY=1;entryDx=0;entryDy=0;endArrow=none;endFill=0;startArrow=ERzeroToOne;startFill=0;" parent="1" source="LAP7pbj2NF0N0nWJ8ouf-762" target="LAP7pbj2NF0N0nWJ8ouf-764" edge="1">
          <mxGeometry relative="1" as="geometry">
            <mxPoint x="640.5" y="-440" as="targetPoint" />
          </mxGeometry>
        </mxCell>
        <mxCell id="LAP7pbj2NF0N0nWJ8ouf-755" style="rounded=0;orthogonalLoop=1;jettySize=auto;html=1;exitX=0.5;exitY=1;exitDx=0;exitDy=0;entryX=0.5;entryY=0;entryDx=0;entryDy=0;" parent="1" source="LAP7pbj2NF0N0nWJ8ouf-762" target="LAP7pbj2NF0N0nWJ8ouf-811" edge="1">
          <mxGeometry relative="1" as="geometry" />
        </mxCell>
        <mxCell id="LAP7pbj2NF0N0nWJ8ouf-756" style="rounded=0;orthogonalLoop=1;jettySize=auto;html=1;exitX=0;exitY=1;exitDx=0;exitDy=0;entryX=0.638;entryY=0.04;entryDx=0;entryDy=0;entryPerimeter=0;" parent="1" source="LAP7pbj2NF0N0nWJ8ouf-762" target="LAP7pbj2NF0N0nWJ8ouf-813" edge="1">
          <mxGeometry relative="1" as="geometry" />
        </mxCell>
        <mxCell id="LAP7pbj2NF0N0nWJ8ouf-757" style="rounded=0;orthogonalLoop=1;jettySize=auto;html=1;exitX=0.75;exitY=1;exitDx=0;exitDy=0;entryX=0.5;entryY=0;entryDx=0;entryDy=0;" parent="1" source="LAP7pbj2NF0N0nWJ8ouf-762" target="LAP7pbj2NF0N0nWJ8ouf-819" edge="1">
          <mxGeometry relative="1" as="geometry" />
        </mxCell>
        <mxCell id="LAP7pbj2NF0N0nWJ8ouf-758" style="rounded=0;orthogonalLoop=1;jettySize=auto;html=1;exitX=0.75;exitY=0;exitDx=0;exitDy=0;" parent="1" source="LAP7pbj2NF0N0nWJ8ouf-762" target="LAP7pbj2NF0N0nWJ8ouf-812" edge="1">
          <mxGeometry relative="1" as="geometry" />
        </mxCell>
        <mxCell id="LAP7pbj2NF0N0nWJ8ouf-759" style="rounded=0;orthogonalLoop=1;jettySize=auto;html=1;exitX=1;exitY=0;exitDx=0;exitDy=0;entryX=0;entryY=0.5;entryDx=0;entryDy=0;" parent="1" source="LAP7pbj2NF0N0nWJ8ouf-762" target="LAP7pbj2NF0N0nWJ8ouf-806" edge="1">
          <mxGeometry relative="1" as="geometry" />
        </mxCell>
        <mxCell id="LAP7pbj2NF0N0nWJ8ouf-760" style="rounded=0;orthogonalLoop=1;jettySize=auto;html=1;exitX=0.25;exitY=0;exitDx=0;exitDy=0;entryX=1;entryY=1;entryDx=0;entryDy=0;" parent="1" source="LAP7pbj2NF0N0nWJ8ouf-762" target="LAP7pbj2NF0N0nWJ8ouf-814" edge="1">
          <mxGeometry relative="1" as="geometry" />
        </mxCell>
        <mxCell id="LAP7pbj2NF0N0nWJ8ouf-761" style="rounded=0;orthogonalLoop=1;jettySize=auto;html=1;exitX=1;exitY=1;exitDx=0;exitDy=0;entryX=0;entryY=0.5;entryDx=0;entryDy=0;" parent="1" source="LAP7pbj2NF0N0nWJ8ouf-762" target="LAP7pbj2NF0N0nWJ8ouf-810" edge="1">
          <mxGeometry relative="1" as="geometry" />
        </mxCell>
        <mxCell id="LAP7pbj2NF0N0nWJ8ouf-762" value="&lt;b&gt;&lt;font style=&quot;font-size: 20px;&quot;&gt;Volunteers&lt;/font&gt;&lt;/b&gt;" style="whiteSpace=wrap;html=1;rounded=0;" parent="1" vertex="1">
          <mxGeometry x="565.5" y="-350" width="150" height="40" as="geometry" />
        </mxCell>
        <mxCell id="LAP7pbj2NF0N0nWJ8ouf-763" value="" style="edgeStyle=orthogonalEdgeStyle;rounded=0;orthogonalLoop=1;jettySize=auto;html=1;endArrow=ERzeroToMany;endFill=0;" parent="1" source="LAP7pbj2NF0N0nWJ8ouf-764" target="LAP7pbj2NF0N0nWJ8ouf-774" edge="1">
          <mxGeometry relative="1" as="geometry" />
        </mxCell>
        <mxCell id="LAP7pbj2NF0N0nWJ8ouf-764" value="deliver" style="rhombus;whiteSpace=wrap;html=1;rounded=0;" parent="1" vertex="1">
          <mxGeometry x="610" y="-520" width="60" height="60" as="geometry" />
        </mxCell>
        <mxCell id="LAP7pbj2NF0N0nWJ8ouf-765" value="" style="edgeStyle=orthogonalEdgeStyle;rounded=0;orthogonalLoop=1;jettySize=auto;html=1;endArrow=none;endFill=0;startArrow=ERzeroToMany;startFill=0;" parent="1" source="LAP7pbj2NF0N0nWJ8ouf-774" target="LAP7pbj2NF0N0nWJ8ouf-776" edge="1">
          <mxGeometry relative="1" as="geometry" />
        </mxCell>
        <mxCell id="LAP7pbj2NF0N0nWJ8ouf-766" value="" style="edgeStyle=orthogonalEdgeStyle;rounded=0;orthogonalLoop=1;jettySize=auto;html=1;endArrow=none;endFill=0;startArrow=ERzeroToMany;startFill=0;" parent="1" source="LAP7pbj2NF0N0nWJ8ouf-774" target="LAP7pbj2NF0N0nWJ8ouf-784" edge="1">
          <mxGeometry relative="1" as="geometry" />
        </mxCell>
        <mxCell id="LAP7pbj2NF0N0nWJ8ouf-767" style="rounded=0;orthogonalLoop=1;jettySize=auto;html=1;exitX=0.25;exitY=0;exitDx=0;exitDy=0;entryX=0.5;entryY=1;entryDx=0;entryDy=0;" parent="1" source="LAP7pbj2NF0N0nWJ8ouf-774" target="LAP7pbj2NF0N0nWJ8ouf-820" edge="1">
          <mxGeometry relative="1" as="geometry" />
        </mxCell>
        <mxCell id="LAP7pbj2NF0N0nWJ8ouf-768" style="rounded=0;orthogonalLoop=1;jettySize=auto;html=1;exitX=0.75;exitY=0;exitDx=0;exitDy=0;entryX=0.5;entryY=1;entryDx=0;entryDy=0;" parent="1" source="LAP7pbj2NF0N0nWJ8ouf-774" target="LAP7pbj2NF0N0nWJ8ouf-822" edge="1">
          <mxGeometry relative="1" as="geometry" />
        </mxCell>
        <mxCell id="LAP7pbj2NF0N0nWJ8ouf-769" style="rounded=0;orthogonalLoop=1;jettySize=auto;html=1;exitX=1;exitY=0;exitDx=0;exitDy=0;entryX=0;entryY=1;entryDx=0;entryDy=0;" parent="1" source="LAP7pbj2NF0N0nWJ8ouf-774" target="LAP7pbj2NF0N0nWJ8ouf-821" edge="1">
          <mxGeometry relative="1" as="geometry" />
        </mxCell>
        <mxCell id="LAP7pbj2NF0N0nWJ8ouf-770" style="rounded=0;orthogonalLoop=1;jettySize=auto;html=1;exitX=1;exitY=0.5;exitDx=0;exitDy=0;entryX=0;entryY=0.5;entryDx=0;entryDy=0;" parent="1" source="LAP7pbj2NF0N0nWJ8ouf-774" target="LAP7pbj2NF0N0nWJ8ouf-823" edge="1">
          <mxGeometry relative="1" as="geometry" />
        </mxCell>
        <mxCell id="LAP7pbj2NF0N0nWJ8ouf-771" style="rounded=0;orthogonalLoop=1;jettySize=auto;html=1;exitX=1;exitY=1;exitDx=0;exitDy=0;entryX=0;entryY=0.5;entryDx=0;entryDy=0;" parent="1" source="LAP7pbj2NF0N0nWJ8ouf-774" target="LAP7pbj2NF0N0nWJ8ouf-824" edge="1">
          <mxGeometry relative="1" as="geometry" />
        </mxCell>
        <mxCell id="LAP7pbj2NF0N0nWJ8ouf-772" style="rounded=0;orthogonalLoop=1;jettySize=auto;html=1;exitX=0.25;exitY=1;exitDx=0;exitDy=0;entryX=1;entryY=0;entryDx=0;entryDy=0;" parent="1" source="LAP7pbj2NF0N0nWJ8ouf-774" target="LAP7pbj2NF0N0nWJ8ouf-826" edge="1">
          <mxGeometry relative="1" as="geometry" />
        </mxCell>
        <mxCell id="LAP7pbj2NF0N0nWJ8ouf-773" style="rounded=0;orthogonalLoop=1;jettySize=auto;html=1;exitX=0;exitY=0;exitDx=0;exitDy=0;entryX=1;entryY=1;entryDx=0;entryDy=0;" parent="1" source="LAP7pbj2NF0N0nWJ8ouf-774" target="LAP7pbj2NF0N0nWJ8ouf-828" edge="1">
          <mxGeometry relative="1" as="geometry" />
        </mxCell>
        <mxCell id="LAP7pbj2NF0N0nWJ8ouf-774" value="&lt;b style=&quot;border-color: var(--border-color);&quot;&gt;&lt;font style=&quot;border-color: var(--border-color); font-size: 20px;&quot;&gt;Food_items&lt;/font&gt;&lt;/b&gt;" style="whiteSpace=wrap;html=1;rounded=0;" parent="1" vertex="1">
          <mxGeometry x="580" y="-680" width="120" height="40" as="geometry" />
        </mxCell>
        <mxCell id="LAP7pbj2NF0N0nWJ8ouf-775" value="" style="edgeStyle=orthogonalEdgeStyle;rounded=0;orthogonalLoop=1;jettySize=auto;html=1;endArrow=ERzeroToOne;endFill=0;" parent="1" source="LAP7pbj2NF0N0nWJ8ouf-776" target="LAP7pbj2NF0N0nWJ8ouf-782" edge="1">
          <mxGeometry relative="1" as="geometry" />
        </mxCell>
        <mxCell id="LAP7pbj2NF0N0nWJ8ouf-776" value="receive" style="rhombus;whiteSpace=wrap;html=1;rounded=0;" parent="1" vertex="1">
          <mxGeometry x="610" y="-850" width="60" height="60" as="geometry" />
        </mxCell>
        <mxCell id="LAP7pbj2NF0N0nWJ8ouf-777" style="rounded=0;orthogonalLoop=1;jettySize=auto;html=1;exitX=0.389;exitY=0.027;exitDx=0;exitDy=0;entryX=0.5;entryY=1;entryDx=0;entryDy=0;exitPerimeter=0;" parent="1" source="LAP7pbj2NF0N0nWJ8ouf-782" target="LAP7pbj2NF0N0nWJ8ouf-793" edge="1">
          <mxGeometry relative="1" as="geometry" />
        </mxCell>
        <mxCell id="LAP7pbj2NF0N0nWJ8ouf-778" style="rounded=0;orthogonalLoop=1;jettySize=auto;html=1;exitX=0.75;exitY=0;exitDx=0;exitDy=0;entryX=0.5;entryY=1;entryDx=0;entryDy=0;" parent="1" source="LAP7pbj2NF0N0nWJ8ouf-782" target="LAP7pbj2NF0N0nWJ8ouf-797" edge="1">
          <mxGeometry relative="1" as="geometry" />
        </mxCell>
        <mxCell id="LAP7pbj2NF0N0nWJ8ouf-779" style="rounded=0;orthogonalLoop=1;jettySize=auto;html=1;exitX=1;exitY=0;exitDx=0;exitDy=0;" parent="1" source="LAP7pbj2NF0N0nWJ8ouf-782" target="LAP7pbj2NF0N0nWJ8ouf-792" edge="1">
          <mxGeometry relative="1" as="geometry" />
        </mxCell>
        <mxCell id="LAP7pbj2NF0N0nWJ8ouf-780" style="rounded=0;orthogonalLoop=1;jettySize=auto;html=1;exitX=0;exitY=0.75;exitDx=0;exitDy=0;entryX=1;entryY=0.5;entryDx=0;entryDy=0;" parent="1" source="LAP7pbj2NF0N0nWJ8ouf-782" target="LAP7pbj2NF0N0nWJ8ouf-796" edge="1">
          <mxGeometry relative="1" as="geometry" />
        </mxCell>
        <mxCell id="LAP7pbj2NF0N0nWJ8ouf-781" style="rounded=0;orthogonalLoop=1;jettySize=auto;html=1;exitX=1;exitY=0.5;exitDx=0;exitDy=0;entryX=0;entryY=0.5;entryDx=0;entryDy=0;" parent="1" source="LAP7pbj2NF0N0nWJ8ouf-782" target="LAP7pbj2NF0N0nWJ8ouf-794" edge="1">
          <mxGeometry relative="1" as="geometry">
            <Array as="points">
              <mxPoint x="720" y="-940" />
            </Array>
          </mxGeometry>
        </mxCell>
        <mxCell id="LAP7pbj2NF0N0nWJ8ouf-782" value="&lt;b style=&quot;border-color: var(--border-color);&quot;&gt;&lt;font style=&quot;border-color: var(--border-color); font-size: 20px;&quot;&gt;Farmers&lt;/font&gt;&lt;/b&gt;" style="whiteSpace=wrap;html=1;rounded=0;" parent="1" vertex="1">
          <mxGeometry x="580" y="-960" width="120" height="40" as="geometry" />
        </mxCell>
        <mxCell id="LAP7pbj2NF0N0nWJ8ouf-783" value="" style="edgeStyle=orthogonalEdgeStyle;rounded=0;orthogonalLoop=1;jettySize=auto;html=1;endArrow=ERoneToMany;endFill=0;" parent="1" source="LAP7pbj2NF0N0nWJ8ouf-784" target="LAP7pbj2NF0N0nWJ8ouf-791" edge="1">
          <mxGeometry relative="1" as="geometry" />
        </mxCell>
        <mxCell id="LAP7pbj2NF0N0nWJ8ouf-784" value="donate" style="rhombus;whiteSpace=wrap;html=1;rounded=0;" parent="1" vertex="1">
          <mxGeometry x="405" y="-687.5" width="60" height="55" as="geometry" />
        </mxCell>
        <mxCell id="LAP7pbj2NF0N0nWJ8ouf-785" style="edgeStyle=orthogonalEdgeStyle;rounded=0;orthogonalLoop=1;jettySize=auto;html=1;exitX=0;exitY=0.5;exitDx=0;exitDy=0;entryX=1;entryY=0.5;entryDx=0;entryDy=0;" parent="1" source="LAP7pbj2NF0N0nWJ8ouf-791" target="LAP7pbj2NF0N0nWJ8ouf-803" edge="1">
          <mxGeometry relative="1" as="geometry" />
        </mxCell>
        <mxCell id="LAP7pbj2NF0N0nWJ8ouf-786" style="rounded=0;orthogonalLoop=1;jettySize=auto;html=1;exitX=0.75;exitY=0;exitDx=0;exitDy=0;entryX=0.5;entryY=1;entryDx=0;entryDy=0;" parent="1" source="LAP7pbj2NF0N0nWJ8ouf-791" target="LAP7pbj2NF0N0nWJ8ouf-800" edge="1">
          <mxGeometry relative="1" as="geometry" />
        </mxCell>
        <mxCell id="LAP7pbj2NF0N0nWJ8ouf-787" style="rounded=0;orthogonalLoop=1;jettySize=auto;html=1;exitX=0.25;exitY=0;exitDx=0;exitDy=0;entryX=0.5;entryY=1;entryDx=0;entryDy=0;" parent="1" source="LAP7pbj2NF0N0nWJ8ouf-791" target="LAP7pbj2NF0N0nWJ8ouf-804" edge="1">
          <mxGeometry relative="1" as="geometry" />
        </mxCell>
        <mxCell id="LAP7pbj2NF0N0nWJ8ouf-788" style="rounded=0;orthogonalLoop=1;jettySize=auto;html=1;exitX=0;exitY=0;exitDx=0;exitDy=0;entryX=1;entryY=1;entryDx=0;entryDy=0;" parent="1" source="LAP7pbj2NF0N0nWJ8ouf-791" target="LAP7pbj2NF0N0nWJ8ouf-801" edge="1">
          <mxGeometry relative="1" as="geometry" />
        </mxCell>
        <mxCell id="LAP7pbj2NF0N0nWJ8ouf-789" style="rounded=0;orthogonalLoop=1;jettySize=auto;html=1;exitX=0.5;exitY=1;exitDx=0;exitDy=0;entryX=0.5;entryY=0;entryDx=0;entryDy=0;" parent="1" source="LAP7pbj2NF0N0nWJ8ouf-791" target="LAP7pbj2NF0N0nWJ8ouf-802" edge="1">
          <mxGeometry relative="1" as="geometry" />
        </mxCell>
        <mxCell id="LAP7pbj2NF0N0nWJ8ouf-790" style="rounded=0;orthogonalLoop=1;jettySize=auto;html=1;exitX=0.25;exitY=1;exitDx=0;exitDy=0;entryX=1;entryY=0;entryDx=0;entryDy=0;" parent="1" source="LAP7pbj2NF0N0nWJ8ouf-791" target="LAP7pbj2NF0N0nWJ8ouf-799" edge="1">
          <mxGeometry relative="1" as="geometry" />
        </mxCell>
        <mxCell id="LAP7pbj2NF0N0nWJ8ouf-791" value="&lt;b style=&quot;border-color: var(--border-color);&quot;&gt;&lt;font style=&quot;border-color: var(--border-color); font-size: 20px;&quot;&gt;Donors&lt;/font&gt;&lt;/b&gt;" style="whiteSpace=wrap;html=1;rounded=0;" parent="1" vertex="1">
          <mxGeometry x="160" y="-680" width="120" height="40" as="geometry" />
        </mxCell>
        <mxCell id="LAP7pbj2NF0N0nWJ8ouf-792" value="farmer_&lt;br&gt;profile_img" style="ellipse;whiteSpace=wrap;html=1;" parent="1" vertex="1">
          <mxGeometry x="730" y="-1030" width="82.5" height="50" as="geometry" />
        </mxCell>
        <mxCell id="LAP7pbj2NF0N0nWJ8ouf-793" value="farmer&lt;br&gt;_address" style="ellipse;whiteSpace=wrap;html=1;" parent="1" vertex="1">
          <mxGeometry x="540" y="-1070" width="92.5" height="50" as="geometry" />
        </mxCell>
        <mxCell id="LAP7pbj2NF0N0nWJ8ouf-794" value="farmer_email" style="ellipse;whiteSpace=wrap;html=1;" parent="1" vertex="1">
          <mxGeometry x="746.25" y="-965" width="85" height="50" as="geometry" />
        </mxCell>
        <mxCell id="LAP7pbj2NF0N0nWJ8ouf-795" value="farmer_name" style="ellipse;whiteSpace=wrap;html=1;" parent="1" vertex="1">
          <mxGeometry x="470" y="-1020" width="86.25" height="50" as="geometry" />
        </mxCell>
        <mxCell id="LAP7pbj2NF0N0nWJ8ouf-796" value="&lt;u&gt;&lt;b&gt;farmer_id&lt;/b&gt;&lt;/u&gt;" style="ellipse;whiteSpace=wrap;html=1;" parent="1" vertex="1">
          <mxGeometry x="448.75" y="-940" width="82.5" height="50" as="geometry" />
        </mxCell>
        <mxCell id="LAP7pbj2NF0N0nWJ8ouf-797" value="farmer_&lt;br&gt;contact_no" style="ellipse;whiteSpace=wrap;html=1;" parent="1" vertex="1">
          <mxGeometry x="650" y="-1070" width="90" height="50" as="geometry" />
        </mxCell>
        <mxCell id="LAP7pbj2NF0N0nWJ8ouf-798" style="rounded=0;orthogonalLoop=1;jettySize=auto;html=1;exitX=0;exitY=0;exitDx=0;exitDy=0;entryX=0.774;entryY=0.92;entryDx=0;entryDy=0;entryPerimeter=0;" parent="1" source="LAP7pbj2NF0N0nWJ8ouf-782" target="LAP7pbj2NF0N0nWJ8ouf-795" edge="1">
          <mxGeometry relative="1" as="geometry" />
        </mxCell>
        <mxCell id="LAP7pbj2NF0N0nWJ8ouf-799" value="donor_&lt;br&gt;contact_no" style="ellipse;whiteSpace=wrap;html=1;" parent="1" vertex="1">
          <mxGeometry x="48.75" y="-600" width="92.5" height="50" as="geometry" />
        </mxCell>
        <mxCell id="LAP7pbj2NF0N0nWJ8ouf-800" value="&lt;b&gt;&lt;u&gt;donor_id&lt;/u&gt;&lt;/b&gt;" style="ellipse;whiteSpace=wrap;html=1;" parent="1" vertex="1">
          <mxGeometry x="257.5" y="-780" width="82.5" height="50" as="geometry" />
        </mxCell>
        <mxCell id="LAP7pbj2NF0N0nWJ8ouf-801" value="donor_email" style="ellipse;whiteSpace=wrap;html=1;" parent="1" vertex="1">
          <mxGeometry x="40" y="-770" width="82.5" height="50" as="geometry" />
        </mxCell>
        <mxCell id="LAP7pbj2NF0N0nWJ8ouf-802" value="donor_&lt;br&gt;profile_img" style="ellipse;whiteSpace=wrap;html=1;" parent="1" vertex="1">
          <mxGeometry x="173.75" y="-580" width="92.5" height="50" as="geometry" />
        </mxCell>
        <mxCell id="LAP7pbj2NF0N0nWJ8ouf-803" value="donor&lt;br&gt;_address" style="ellipse;whiteSpace=wrap;html=1;" parent="1" vertex="1">
          <mxGeometry x="17.5" y="-685" width="82.5" height="50" as="geometry" />
        </mxCell>
        <mxCell id="LAP7pbj2NF0N0nWJ8ouf-804" value="donor_name" style="ellipse;whiteSpace=wrap;html=1;" parent="1" vertex="1">
          <mxGeometry x="150" y="-800" width="82.5" height="50" as="geometry" />
        </mxCell>
        <mxCell id="LAP7pbj2NF0N0nWJ8ouf-805" value="ngo_address" style="ellipse;whiteSpace=wrap;html=1;" parent="1" vertex="1">
          <mxGeometry x="18" y="-390" width="92.5" height="50" as="geometry" />
        </mxCell>
        <mxCell id="LAP7pbj2NF0N0nWJ8ouf-806" value="volunteer&lt;br&gt;_dob" style="ellipse;whiteSpace=wrap;html=1;" parent="1" vertex="1">
          <mxGeometry x="750" y="-400" width="85" height="50" as="geometry" />
        </mxCell>
        <mxCell id="LAP7pbj2NF0N0nWJ8ouf-807" value="ngo_email" style="ellipse;whiteSpace=wrap;html=1;" parent="1" vertex="1">
          <mxGeometry x="18" y="-320" width="92.5" height="50" as="geometry" />
        </mxCell>
        <mxCell id="LAP7pbj2NF0N0nWJ8ouf-808" value="ngo&lt;br&gt;_descriptions" style="ellipse;whiteSpace=wrap;html=1;" parent="1" vertex="1">
          <mxGeometry x="188" y="-460" width="92.5" height="50" as="geometry" />
        </mxCell>
        <mxCell id="LAP7pbj2NF0N0nWJ8ouf-809" value="ngo_logo_img" style="ellipse;whiteSpace=wrap;html=1;" parent="1" vertex="1">
          <mxGeometry x="280.5" y="-420" width="92.5" height="50" as="geometry" />
        </mxCell>
        <mxCell id="LAP7pbj2NF0N0nWJ8ouf-810" value="phone_no" style="ellipse;whiteSpace=wrap;html=1;" parent="1" vertex="1">
          <mxGeometry x="753" y="-310" width="83.75" height="50" as="geometry" />
        </mxCell>
        <mxCell id="LAP7pbj2NF0N0nWJ8ouf-811" value="volunteer&lt;br&gt;_name" style="ellipse;whiteSpace=wrap;html=1;" parent="1" vertex="1">
          <mxGeometry x="567.5" y="-250" width="92.5" height="50" as="geometry" />
        </mxCell>
        <mxCell id="LAP7pbj2NF0N0nWJ8ouf-812" value="volunteer&lt;br&gt;_location" style="ellipse;whiteSpace=wrap;html=1;" parent="1" vertex="1">
          <mxGeometry x="677.5" y="-460" width="92.5" height="50" as="geometry" />
        </mxCell>
        <mxCell id="LAP7pbj2NF0N0nWJ8ouf-813" value="&lt;b&gt;volunteer&lt;br&gt;_id&lt;/b&gt;" style="ellipse;whiteSpace=wrap;html=1;" parent="1" vertex="1">
          <mxGeometry x="465" y="-270" width="91.25" height="50" as="geometry" />
        </mxCell>
        <mxCell id="LAP7pbj2NF0N0nWJ8ouf-814" value="volunteer&lt;br&gt;_profile_img" style="ellipse;whiteSpace=wrap;html=1;" parent="1" vertex="1">
          <mxGeometry x="480" y="-450" width="92.5" height="50" as="geometry" />
        </mxCell>
        <mxCell id="LAP7pbj2NF0N0nWJ8ouf-815" value="established&lt;br&gt;_date" style="ellipse;whiteSpace=wrap;html=1;" parent="1" vertex="1">
          <mxGeometry x="80.5" y="-450" width="92.5" height="50" as="geometry" />
        </mxCell>
        <mxCell id="LAP7pbj2NF0N0nWJ8ouf-816" value="&lt;b&gt;&lt;u&gt;ngo_id&lt;/u&gt;&lt;/b&gt;" style="ellipse;whiteSpace=wrap;html=1;" parent="1" vertex="1">
          <mxGeometry x="278" y="-290" width="92.5" height="50" as="geometry" />
        </mxCell>
        <mxCell id="LAP7pbj2NF0N0nWJ8ouf-817" value="telephone_no" style="ellipse;whiteSpace=wrap;html=1;" parent="1" vertex="1">
          <mxGeometry x="80.5" y="-260" width="92.5" height="50" as="geometry" />
        </mxCell>
        <mxCell id="LAP7pbj2NF0N0nWJ8ouf-818" value="ngo_name" style="ellipse;whiteSpace=wrap;html=1;" parent="1" vertex="1">
          <mxGeometry x="188" y="-250" width="92.5" height="50" as="geometry" />
        </mxCell>
        <mxCell id="LAP7pbj2NF0N0nWJ8ouf-819" value="volunteer&lt;br style=&quot;border-color: var(--border-color);&quot;&gt;_email" style="ellipse;whiteSpace=wrap;html=1;" parent="1" vertex="1">
          <mxGeometry x="677.5" y="-250" width="92.5" height="50" as="geometry" />
        </mxCell>
        <mxCell id="LAP7pbj2NF0N0nWJ8ouf-820" value="food_name" style="ellipse;whiteSpace=wrap;html=1;" parent="1" vertex="1">
          <mxGeometry x="517.5" y="-800" width="92.5" height="50" as="geometry" />
        </mxCell>
        <mxCell id="LAP7pbj2NF0N0nWJ8ouf-821" value="food_quantity" style="ellipse;whiteSpace=wrap;html=1;" parent="1" vertex="1">
          <mxGeometry x="751.25" y="-750" width="92.5" height="50" as="geometry" />
        </mxCell>
        <mxCell id="LAP7pbj2NF0N0nWJ8ouf-822" value="food types" style="ellipse;whiteSpace=wrap;html=1;" parent="1" vertex="1">
          <mxGeometry x="658.75" y="-780" width="92.5" height="50" as="geometry" />
        </mxCell>
        <mxCell id="LAP7pbj2NF0N0nWJ8ouf-823" value="food_&lt;br style=&quot;border-color: var(--border-color);&quot;&gt;descriptions" style="ellipse;whiteSpace=wrap;html=1;" parent="1" vertex="1">
          <mxGeometry x="746.25" y="-680" width="92.5" height="50" as="geometry" />
        </mxCell>
        <mxCell id="LAP7pbj2NF0N0nWJ8ouf-824" value="donate&lt;br style=&quot;border-color: var(--border-color);&quot;&gt;_datetime" style="ellipse;whiteSpace=wrap;html=1;" parent="1" vertex="1">
          <mxGeometry x="746.25" y="-610" width="92.5" height="50" as="geometry" />
        </mxCell>
        <mxCell id="LAP7pbj2NF0N0nWJ8ouf-825" value="donate&lt;br style=&quot;border-color: var(--border-color);&quot;&gt;_location" style="ellipse;whiteSpace=wrap;html=1;" parent="1" vertex="1">
          <mxGeometry x="657.5" y="-570" width="92.5" height="50" as="geometry" />
        </mxCell>
        <mxCell id="LAP7pbj2NF0N0nWJ8ouf-826" value="food_image" style="ellipse;whiteSpace=wrap;html=1;" parent="1" vertex="1">
          <mxGeometry x="470" y="-600" width="92.5" height="50" as="geometry" />
        </mxCell>
        <mxCell id="LAP7pbj2NF0N0nWJ8ouf-827" style="rounded=0;orthogonalLoop=1;jettySize=auto;html=1;exitX=0.75;exitY=1;exitDx=0;exitDy=0;entryX=0.406;entryY=0.059;entryDx=0;entryDy=0;entryPerimeter=0;" parent="1" source="LAP7pbj2NF0N0nWJ8ouf-774" target="LAP7pbj2NF0N0nWJ8ouf-825" edge="1">
          <mxGeometry relative="1" as="geometry" />
        </mxCell>
        <mxCell id="LAP7pbj2NF0N0nWJ8ouf-828" value="&lt;b&gt;&lt;u&gt;food_id&lt;/u&gt;&lt;/b&gt;" style="ellipse;whiteSpace=wrap;html=1;" parent="1" vertex="1">
          <mxGeometry x="438.75" y="-750" width="92.5" height="50" as="geometry" />
        </mxCell>
        <mxCell id="LAP7pbj2NF0N0nWJ8ouf-829" value="" style="endArrow=none;html=1;rounded=0;strokeWidth=1;endSize=6;jumpSize=6;exitX=0;exitY=1;exitDx=0;exitDy=0;" parent="1" source="LAP7pbj2NF0N0nWJ8ouf-840" edge="1">
          <mxGeometry width="50" height="50" relative="1" as="geometry">
            <mxPoint x="-740" y="-670" as="sourcePoint" />
            <mxPoint x="-740" y="-850" as="targetPoint" />
          </mxGeometry>
        </mxCell>
        <mxCell id="LAP7pbj2NF0N0nWJ8ouf-830" value="&lt;b&gt;&lt;font style=&quot;font-size: 16px;&quot;&gt;Donors&lt;/font&gt;&lt;/b&gt;" style="swimlane;fontStyle=0;childLayout=stackLayout;horizontal=1;startSize=30;horizontalStack=0;resizeParent=1;resizeParentMax=0;resizeLast=0;collapsible=1;marginBottom=0;whiteSpace=wrap;html=1;" parent="1" vertex="1">
          <mxGeometry x="-770" y="-880" width="140" height="240" as="geometry" />
        </mxCell>
        <mxCell id="LAP7pbj2NF0N0nWJ8ouf-831" value="" style="endArrow=none;html=1;rounded=0;" parent="1" edge="1">
          <mxGeometry width="50" height="50" relative="1" as="geometry">
            <mxPoint x="-770" y="-820" as="sourcePoint" />
            <mxPoint x="-630" y="-820" as="targetPoint" />
          </mxGeometry>
        </mxCell>
        <mxCell id="LAP7pbj2NF0N0nWJ8ouf-832" value="&lt;b&gt;PK&lt;/b&gt;" style="text;html=1;strokeColor=none;fillColor=none;align=center;verticalAlign=middle;whiteSpace=wrap;rounded=0;" parent="1" vertex="1">
          <mxGeometry x="-770" y="-850" width="30" height="30" as="geometry" />
        </mxCell>
        <mxCell id="LAP7pbj2NF0N0nWJ8ouf-833" value="donor_name" style="text;html=1;strokeColor=none;fillColor=none;align=center;verticalAlign=middle;whiteSpace=wrap;rounded=0;" parent="1" vertex="1">
          <mxGeometry x="-740" y="-820" width="110" height="30" as="geometry" />
        </mxCell>
        <mxCell id="LAP7pbj2NF0N0nWJ8ouf-834" value="donor_profile_img" style="text;html=1;strokeColor=none;fillColor=none;align=center;verticalAlign=middle;whiteSpace=wrap;rounded=0;" parent="1" vertex="1">
          <mxGeometry x="-740" y="-700" width="110" height="30" as="geometry" />
        </mxCell>
        <mxCell id="LAP7pbj2NF0N0nWJ8ouf-835" value="donor_address" style="text;html=1;strokeColor=none;fillColor=none;align=center;verticalAlign=middle;whiteSpace=wrap;rounded=0;" parent="1" vertex="1">
          <mxGeometry x="-740" y="-730" width="110" height="30" as="geometry" />
        </mxCell>
        <mxCell id="LAP7pbj2NF0N0nWJ8ouf-836" style="edgeStyle=orthogonalEdgeStyle;rounded=0;orthogonalLoop=1;jettySize=auto;html=1;exitX=1;exitY=0.5;exitDx=0;exitDy=0;entryX=0;entryY=0.5;entryDx=0;entryDy=0;endArrow=ERzeroToMany;endFill=0;startArrow=ERoneToMany;startFill=0;" parent="1" source="LAP7pbj2NF0N0nWJ8ouf-837" target="LAP7pbj2NF0N0nWJ8ouf-855" edge="1">
          <mxGeometry relative="1" as="geometry" />
        </mxCell>
        <mxCell id="LAP7pbj2NF0N0nWJ8ouf-837" value="donor_id" style="text;html=1;strokeColor=none;fillColor=none;align=center;verticalAlign=middle;whiteSpace=wrap;rounded=0;" parent="1" vertex="1">
          <mxGeometry x="-740" y="-850" width="110" height="30" as="geometry" />
        </mxCell>
        <mxCell id="LAP7pbj2NF0N0nWJ8ouf-838" value="donor_contact_no" style="text;html=1;strokeColor=none;fillColor=none;align=center;verticalAlign=middle;whiteSpace=wrap;rounded=0;" parent="1" vertex="1">
          <mxGeometry x="-740" y="-790" width="110" height="30" as="geometry" />
        </mxCell>
        <mxCell id="LAP7pbj2NF0N0nWJ8ouf-839" value="donor_email" style="text;html=1;strokeColor=none;fillColor=none;align=center;verticalAlign=middle;whiteSpace=wrap;rounded=0;" parent="1" vertex="1">
          <mxGeometry x="-740" y="-760" width="110" height="30" as="geometry" />
        </mxCell>
        <mxCell id="LAP7pbj2NF0N0nWJ8ouf-840" value="food_id" style="text;html=1;strokeColor=none;fillColor=none;align=center;verticalAlign=middle;whiteSpace=wrap;rounded=0;" parent="1" vertex="1">
          <mxGeometry x="-740" y="-670" width="110" height="30" as="geometry" />
        </mxCell>
        <mxCell id="LAP7pbj2NF0N0nWJ8ouf-841" value="" style="endArrow=none;html=1;rounded=0;entryX=1;entryY=0;entryDx=0;entryDy=0;" parent="1" target="LAP7pbj2NF0N0nWJ8ouf-840" edge="1">
          <mxGeometry width="50" height="50" relative="1" as="geometry">
            <mxPoint x="-770" y="-670" as="sourcePoint" />
            <mxPoint x="-690" y="-700" as="targetPoint" />
          </mxGeometry>
        </mxCell>
        <mxCell id="LAP7pbj2NF0N0nWJ8ouf-842" value="FK" style="text;html=1;strokeColor=none;fillColor=none;align=center;verticalAlign=middle;whiteSpace=wrap;rounded=0;" parent="1" vertex="1">
          <mxGeometry x="-770" y="-670" width="30" height="30" as="geometry" />
        </mxCell>
        <mxCell id="LAP7pbj2NF0N0nWJ8ouf-843" value="" style="endArrow=none;html=1;rounded=0;strokeWidth=1;endSize=6;jumpSize=6;exitX=1;exitY=1;exitDx=0;exitDy=0;" parent="1" source="LAP7pbj2NF0N0nWJ8ouf-863" edge="1">
          <mxGeometry width="50" height="50" relative="1" as="geometry">
            <mxPoint x="-470" y="-509.4771082261029" as="sourcePoint" />
            <mxPoint x="-470" y="-900" as="targetPoint" />
          </mxGeometry>
        </mxCell>
        <mxCell id="LAP7pbj2NF0N0nWJ8ouf-844" value="&lt;b&gt;&lt;font style=&quot;font-size: 16px;&quot;&gt;Food_Items&lt;/font&gt;&lt;/b&gt;" style="swimlane;fontStyle=0;childLayout=stackLayout;horizontal=1;startSize=30;horizontalStack=0;resizeParent=1;resizeParentMax=0;resizeLast=0;collapsible=1;marginBottom=0;whiteSpace=wrap;html=1;" parent="1" vertex="1">
          <mxGeometry x="-500" y="-930" width="140" height="360" as="geometry" />
        </mxCell>
        <mxCell id="LAP7pbj2NF0N0nWJ8ouf-845" value="" style="endArrow=none;html=1;rounded=0;" parent="1" edge="1">
          <mxGeometry width="50" height="50" relative="1" as="geometry">
            <mxPoint x="-500" y="-870" as="sourcePoint" />
            <mxPoint x="-360" y="-870" as="targetPoint" />
          </mxGeometry>
        </mxCell>
        <mxCell id="LAP7pbj2NF0N0nWJ8ouf-846" value="&lt;b&gt;PK&lt;/b&gt;" style="text;html=1;strokeColor=none;fillColor=none;align=center;verticalAlign=middle;whiteSpace=wrap;rounded=0;" parent="1" vertex="1">
          <mxGeometry x="-500" y="-900" width="30" height="30" as="geometry" />
        </mxCell>
        <mxCell id="LAP7pbj2NF0N0nWJ8ouf-847" value="food_name" style="text;html=1;strokeColor=none;fillColor=none;align=center;verticalAlign=middle;whiteSpace=wrap;rounded=0;" parent="1" vertex="1">
          <mxGeometry x="-470" y="-870" width="110" height="30" as="geometry" />
        </mxCell>
        <mxCell id="LAP7pbj2NF0N0nWJ8ouf-848" value="food_descriptions" style="text;html=1;strokeColor=none;fillColor=none;align=center;verticalAlign=middle;whiteSpace=wrap;rounded=0;" parent="1" vertex="1">
          <mxGeometry x="-470" y="-780" width="110" height="30" as="geometry" />
        </mxCell>
        <mxCell id="LAP7pbj2NF0N0nWJ8ouf-849" style="edgeStyle=orthogonalEdgeStyle;rounded=0;orthogonalLoop=1;jettySize=auto;html=1;exitX=1;exitY=0.5;exitDx=0;exitDy=0;entryX=0;entryY=0.5;entryDx=0;entryDy=0;endArrow=ERmandOne;endFill=0;startArrow=ERmandOne;startFill=0;" parent="1" source="LAP7pbj2NF0N0nWJ8ouf-850" target="LAP7pbj2NF0N0nWJ8ouf-902" edge="1">
          <mxGeometry relative="1" as="geometry" />
        </mxCell>
        <mxCell id="LAP7pbj2NF0N0nWJ8ouf-850" value="food_id" style="text;html=1;strokeColor=none;fillColor=none;align=center;verticalAlign=middle;whiteSpace=wrap;rounded=0;" parent="1" vertex="1">
          <mxGeometry x="-470" y="-900" width="110" height="30" as="geometry" />
        </mxCell>
        <mxCell id="LAP7pbj2NF0N0nWJ8ouf-851" value="food types" style="text;html=1;strokeColor=none;fillColor=none;align=center;verticalAlign=middle;whiteSpace=wrap;rounded=0;" parent="1" vertex="1">
          <mxGeometry x="-470" y="-840" width="110" height="30" as="geometry" />
        </mxCell>
        <mxCell id="LAP7pbj2NF0N0nWJ8ouf-852" value="food_quantity" style="text;html=1;strokeColor=none;fillColor=none;align=center;verticalAlign=middle;whiteSpace=wrap;rounded=0;" parent="1" vertex="1">
          <mxGeometry x="-470" y="-810" width="110" height="30" as="geometry" />
        </mxCell>
        <mxCell id="LAP7pbj2NF0N0nWJ8ouf-853" value="food_image" style="text;html=1;strokeColor=none;fillColor=none;align=center;verticalAlign=middle;whiteSpace=wrap;rounded=0;" parent="1" vertex="1">
          <mxGeometry x="-470" y="-690" width="110" height="30" as="geometry" />
        </mxCell>
        <mxCell id="LAP7pbj2NF0N0nWJ8ouf-854" value="" style="endArrow=none;html=1;rounded=0;" parent="1" edge="1">
          <mxGeometry width="50" height="50" relative="1" as="geometry">
            <mxPoint x="-500" y="-630" as="sourcePoint" />
            <mxPoint x="-360" y="-630" as="targetPoint" />
          </mxGeometry>
        </mxCell>
        <mxCell id="LAP7pbj2NF0N0nWJ8ouf-855" value="FK" style="text;html=1;strokeColor=none;fillColor=none;align=center;verticalAlign=middle;whiteSpace=wrap;rounded=0;" parent="1" vertex="1">
          <mxGeometry x="-500" y="-660" width="30" height="30" as="geometry" />
        </mxCell>
        <mxCell id="LAP7pbj2NF0N0nWJ8ouf-856" value="donate_datetime" style="text;html=1;strokeColor=none;fillColor=none;align=center;verticalAlign=middle;whiteSpace=wrap;rounded=0;" parent="1" vertex="1">
          <mxGeometry x="-470" y="-750" width="110" height="30" as="geometry" />
        </mxCell>
        <mxCell id="LAP7pbj2NF0N0nWJ8ouf-857" value="donate_location" style="text;html=1;strokeColor=none;fillColor=none;align=center;verticalAlign=middle;whiteSpace=wrap;rounded=0;" parent="1" vertex="1">
          <mxGeometry x="-470" y="-720" width="110" height="30" as="geometry" />
        </mxCell>
        <mxCell id="LAP7pbj2NF0N0nWJ8ouf-858" value="" style="endArrow=none;html=1;rounded=0;exitX=0;exitY=1;exitDx=0;exitDy=0;entryX=1;entryY=1;entryDx=0;entryDy=0;" parent="1" source="LAP7pbj2NF0N0nWJ8ouf-862" target="LAP7pbj2NF0N0nWJ8ouf-861" edge="1">
          <mxGeometry width="50" height="50" relative="1" as="geometry">
            <mxPoint x="-410" y="-600.65" as="sourcePoint" />
            <mxPoint x="-270" y="-600.65" as="targetPoint" />
          </mxGeometry>
        </mxCell>
        <mxCell id="LAP7pbj2NF0N0nWJ8ouf-859" value="donor_id" style="text;html=1;strokeColor=none;fillColor=none;align=center;verticalAlign=middle;whiteSpace=wrap;rounded=0;" parent="1" vertex="1">
          <mxGeometry x="-470" y="-660" width="110" height="30" as="geometry" />
        </mxCell>
        <mxCell id="LAP7pbj2NF0N0nWJ8ouf-860" value="farmer_id" style="text;html=1;strokeColor=none;fillColor=none;align=center;verticalAlign=middle;whiteSpace=wrap;rounded=0;" parent="1" vertex="1">
          <mxGeometry x="-470" y="-600" width="110" height="30" as="geometry" />
        </mxCell>
        <mxCell id="LAP7pbj2NF0N0nWJ8ouf-861" value="volunteer_id" style="text;html=1;strokeColor=none;fillColor=none;align=center;verticalAlign=middle;whiteSpace=wrap;rounded=0;" parent="1" vertex="1">
          <mxGeometry x="-470" y="-630" width="110" height="30" as="geometry" />
        </mxCell>
        <mxCell id="LAP7pbj2NF0N0nWJ8ouf-862" value="FK" style="text;html=1;strokeColor=none;fillColor=none;align=center;verticalAlign=middle;whiteSpace=wrap;rounded=0;" parent="1" vertex="1">
          <mxGeometry x="-500" y="-630" width="30" height="30" as="geometry" />
        </mxCell>
        <mxCell id="LAP7pbj2NF0N0nWJ8ouf-863" value="FK" style="text;html=1;strokeColor=none;fillColor=none;align=center;verticalAlign=middle;whiteSpace=wrap;rounded=0;" parent="1" vertex="1">
          <mxGeometry x="-500" y="-600" width="30" height="30" as="geometry" />
        </mxCell>
        <mxCell id="LAP7pbj2NF0N0nWJ8ouf-864" value="" style="endArrow=none;html=1;rounded=0;exitX=0;exitY=0;exitDx=0;exitDy=0;entryX=1;entryY=1;entryDx=0;entryDy=0;" parent="1" source="LAP7pbj2NF0N0nWJ8ouf-855" edge="1">
          <mxGeometry width="50" height="50" relative="1" as="geometry">
            <mxPoint x="-500" y="-650" as="sourcePoint" />
            <mxPoint x="-360" y="-660" as="targetPoint" />
          </mxGeometry>
        </mxCell>
        <mxCell id="LAP7pbj2NF0N0nWJ8ouf-865" value="" style="endArrow=none;html=1;rounded=0;strokeWidth=1;endSize=6;jumpSize=6;exitX=0;exitY=1;exitDx=0;exitDy=0;" parent="1" source="LAP7pbj2NF0N0nWJ8ouf-870" edge="1">
          <mxGeometry width="50" height="50" relative="1" as="geometry">
            <mxPoint x="-740" y="-330" as="sourcePoint" />
            <mxPoint x="-740" y="-540" as="targetPoint" />
          </mxGeometry>
        </mxCell>
        <mxCell id="LAP7pbj2NF0N0nWJ8ouf-866" value="&lt;b&gt;&lt;font style=&quot;font-size: 16px;&quot;&gt;Farmers&lt;/font&gt;&lt;/b&gt;" style="swimlane;fontStyle=0;childLayout=stackLayout;horizontal=1;startSize=30;horizontalStack=0;resizeParent=1;resizeParentMax=0;resizeLast=0;collapsible=1;marginBottom=0;whiteSpace=wrap;html=1;" parent="1" vertex="1">
          <mxGeometry x="-770" y="-570" width="140" height="210" as="geometry" />
        </mxCell>
        <mxCell id="LAP7pbj2NF0N0nWJ8ouf-867" value="" style="endArrow=none;html=1;rounded=0;" parent="1" edge="1">
          <mxGeometry width="50" height="50" relative="1" as="geometry">
            <mxPoint x="-770" y="-510" as="sourcePoint" />
            <mxPoint x="-630" y="-510" as="targetPoint" />
          </mxGeometry>
        </mxCell>
        <mxCell id="LAP7pbj2NF0N0nWJ8ouf-868" value="&lt;b&gt;PK&lt;/b&gt;" style="text;html=1;strokeColor=none;fillColor=none;align=center;verticalAlign=middle;whiteSpace=wrap;rounded=0;" parent="1" vertex="1">
          <mxGeometry x="-770" y="-540" width="30" height="30" as="geometry" />
        </mxCell>
        <mxCell id="LAP7pbj2NF0N0nWJ8ouf-869" value="farmer_name" style="text;html=1;strokeColor=none;fillColor=none;align=center;verticalAlign=middle;whiteSpace=wrap;rounded=0;" parent="1" vertex="1">
          <mxGeometry x="-740" y="-510" width="110" height="30" as="geometry" />
        </mxCell>
        <mxCell id="LAP7pbj2NF0N0nWJ8ouf-870" value="farmer_profile_img" style="text;html=1;strokeColor=none;fillColor=none;align=center;verticalAlign=middle;whiteSpace=wrap;rounded=0;" parent="1" vertex="1">
          <mxGeometry x="-740" y="-390" width="110" height="30" as="geometry" />
        </mxCell>
        <mxCell id="LAP7pbj2NF0N0nWJ8ouf-871" value="farmer_address" style="text;html=1;strokeColor=none;fillColor=none;align=center;verticalAlign=middle;whiteSpace=wrap;rounded=0;" parent="1" vertex="1">
          <mxGeometry x="-740" y="-420" width="110" height="30" as="geometry" />
        </mxCell>
        <mxCell id="LAP7pbj2NF0N0nWJ8ouf-872" style="edgeStyle=orthogonalEdgeStyle;rounded=0;orthogonalLoop=1;jettySize=auto;html=1;exitX=1;exitY=0.5;exitDx=0;exitDy=0;entryX=0;entryY=0.5;entryDx=0;entryDy=0;endArrow=ERzeroToMany;endFill=0;startArrow=ERzeroToMany;startFill=0;" parent="1" source="LAP7pbj2NF0N0nWJ8ouf-873" target="LAP7pbj2NF0N0nWJ8ouf-863" edge="1">
          <mxGeometry relative="1" as="geometry" />
        </mxCell>
        <mxCell id="LAP7pbj2NF0N0nWJ8ouf-873" value="farmer_id" style="text;html=1;strokeColor=none;fillColor=none;align=center;verticalAlign=middle;whiteSpace=wrap;rounded=0;" parent="1" vertex="1">
          <mxGeometry x="-740" y="-540" width="110" height="30" as="geometry" />
        </mxCell>
        <mxCell id="LAP7pbj2NF0N0nWJ8ouf-874" value="farmer_contact_no" style="text;html=1;strokeColor=none;fillColor=none;align=center;verticalAlign=middle;whiteSpace=wrap;rounded=0;" parent="1" vertex="1">
          <mxGeometry x="-740" y="-480" width="110" height="30" as="geometry" />
        </mxCell>
        <mxCell id="LAP7pbj2NF0N0nWJ8ouf-875" value="farmer_email" style="text;html=1;strokeColor=none;fillColor=none;align=center;verticalAlign=middle;whiteSpace=wrap;rounded=0;" parent="1" vertex="1">
          <mxGeometry x="-740" y="-450" width="110" height="30" as="geometry" />
        </mxCell>
        <mxCell id="LAP7pbj2NF0N0nWJ8ouf-876" value="" style="endArrow=none;html=1;rounded=0;strokeWidth=1;endSize=6;jumpSize=6;exitX=0;exitY=1;exitDx=0;exitDy=0;" parent="1" source="LAP7pbj2NF0N0nWJ8ouf-888" edge="1">
          <mxGeometry width="50" height="50" relative="1" as="geometry">
            <mxPoint x="-260" y="-405" as="sourcePoint" />
            <mxPoint x="-260" y="-585" as="targetPoint" />
          </mxGeometry>
        </mxCell>
        <mxCell id="LAP7pbj2NF0N0nWJ8ouf-877" value="&lt;b&gt;&lt;font style=&quot;font-size: 16px;&quot;&gt;Volunteers&lt;/font&gt;&lt;/b&gt;" style="swimlane;fontStyle=0;childLayout=stackLayout;horizontal=1;startSize=30;horizontalStack=0;resizeParent=1;resizeParentMax=0;resizeLast=0;collapsible=1;marginBottom=0;whiteSpace=wrap;html=1;" parent="1" vertex="1">
          <mxGeometry x="-290" y="-615" width="160" height="240" as="geometry" />
        </mxCell>
        <mxCell id="LAP7pbj2NF0N0nWJ8ouf-878" value="" style="endArrow=none;html=1;rounded=0;entryX=1;entryY=1;entryDx=0;entryDy=0;" parent="1" target="LAP7pbj2NF0N0nWJ8ouf-885" edge="1">
          <mxGeometry width="50" height="50" relative="1" as="geometry">
            <mxPoint x="-290" y="-555" as="sourcePoint" />
            <mxPoint x="-150" y="-555" as="targetPoint" />
          </mxGeometry>
        </mxCell>
        <mxCell id="LAP7pbj2NF0N0nWJ8ouf-879" style="edgeStyle=orthogonalEdgeStyle;rounded=0;orthogonalLoop=1;jettySize=auto;html=1;exitX=0;exitY=0.5;exitDx=0;exitDy=0;entryX=1;entryY=0.5;entryDx=0;entryDy=0;endArrow=ERzeroToMany;endFill=0;startArrow=ERone;startFill=0;" parent="1" source="LAP7pbj2NF0N0nWJ8ouf-880" target="LAP7pbj2NF0N0nWJ8ouf-861" edge="1">
          <mxGeometry relative="1" as="geometry" />
        </mxCell>
        <mxCell id="LAP7pbj2NF0N0nWJ8ouf-880" value="&lt;b&gt;PK&lt;/b&gt;" style="text;html=1;strokeColor=none;fillColor=none;align=center;verticalAlign=middle;whiteSpace=wrap;rounded=0;" parent="1" vertex="1">
          <mxGeometry x="-290" y="-585" width="30" height="25" as="geometry" />
        </mxCell>
        <mxCell id="LAP7pbj2NF0N0nWJ8ouf-881" value="volunteer_name" style="text;html=1;strokeColor=none;fillColor=none;align=center;verticalAlign=middle;whiteSpace=wrap;rounded=0;" parent="1" vertex="1">
          <mxGeometry x="-260" y="-555" width="130" height="30" as="geometry" />
        </mxCell>
        <mxCell id="LAP7pbj2NF0N0nWJ8ouf-882" value="volunteer_profile_img" style="text;html=1;strokeColor=none;fillColor=none;align=center;verticalAlign=middle;whiteSpace=wrap;rounded=0;" parent="1" vertex="1">
          <mxGeometry x="-260" y="-435" width="130" height="30" as="geometry" />
        </mxCell>
        <mxCell id="LAP7pbj2NF0N0nWJ8ouf-883" value="vlounteer_location" style="text;html=1;strokeColor=none;fillColor=none;align=center;verticalAlign=middle;whiteSpace=wrap;rounded=0;" parent="1" vertex="1">
          <mxGeometry x="-260" y="-465" width="130" height="30" as="geometry" />
        </mxCell>
        <mxCell id="LAP7pbj2NF0N0nWJ8ouf-884" style="edgeStyle=orthogonalEdgeStyle;rounded=0;orthogonalLoop=1;jettySize=auto;html=1;exitX=1;exitY=0.5;exitDx=0;exitDy=0;entryX=0;entryY=0.5;entryDx=0;entryDy=0;startArrow=ERoneToMany;startFill=0;endArrow=ERmandOne;endFill=0;" parent="1" source="LAP7pbj2NF0N0nWJ8ouf-885" target="LAP7pbj2NF0N0nWJ8ouf-905" edge="1">
          <mxGeometry relative="1" as="geometry">
            <Array as="points">
              <mxPoint x="-90" y="-570" />
              <mxPoint x="-90" y="-650" />
              <mxPoint x="-250" y="-650" />
              <mxPoint x="-250" y="-705" />
            </Array>
          </mxGeometry>
        </mxCell>
        <mxCell id="LAP7pbj2NF0N0nWJ8ouf-885" value="volunteer_id" style="text;html=1;strokeColor=none;fillColor=none;align=center;verticalAlign=middle;whiteSpace=wrap;rounded=0;" parent="1" vertex="1">
          <mxGeometry x="-260" y="-585" width="130" height="30" as="geometry" />
        </mxCell>
        <mxCell id="LAP7pbj2NF0N0nWJ8ouf-886" value="phone_no" style="text;html=1;strokeColor=none;fillColor=none;align=center;verticalAlign=middle;whiteSpace=wrap;rounded=0;" parent="1" vertex="1">
          <mxGeometry x="-260" y="-525" width="130" height="30" as="geometry" />
        </mxCell>
        <mxCell id="LAP7pbj2NF0N0nWJ8ouf-887" value="volunteer_email" style="text;html=1;strokeColor=none;fillColor=none;align=center;verticalAlign=middle;whiteSpace=wrap;rounded=0;" parent="1" vertex="1">
          <mxGeometry x="-260" y="-495" width="130" height="30" as="geometry" />
        </mxCell>
        <mxCell id="LAP7pbj2NF0N0nWJ8ouf-888" value="ngo_id" style="text;html=1;strokeColor=none;fillColor=none;align=center;verticalAlign=middle;whiteSpace=wrap;rounded=0;" parent="1" vertex="1">
          <mxGeometry x="-260" y="-405" width="130" height="30" as="geometry" />
        </mxCell>
        <mxCell id="LAP7pbj2NF0N0nWJ8ouf-889" value="" style="endArrow=none;html=1;rounded=0;entryX=1;entryY=0;entryDx=0;entryDy=0;" parent="1" target="LAP7pbj2NF0N0nWJ8ouf-888" edge="1">
          <mxGeometry width="50" height="50" relative="1" as="geometry">
            <mxPoint x="-290" y="-405" as="sourcePoint" />
            <mxPoint x="-210" y="-435" as="targetPoint" />
          </mxGeometry>
        </mxCell>
        <mxCell id="LAP7pbj2NF0N0nWJ8ouf-890" value="FK" style="text;html=1;strokeColor=none;fillColor=none;align=center;verticalAlign=middle;whiteSpace=wrap;rounded=0;" parent="1" vertex="1">
          <mxGeometry x="-290" y="-405" width="30" height="30" as="geometry" />
        </mxCell>
        <mxCell id="LAP7pbj2NF0N0nWJ8ouf-891" value="" style="endArrow=none;html=1;rounded=0;strokeWidth=1;endSize=6;jumpSize=6;exitX=1;exitY=1;exitDx=0;exitDy=0;" parent="1" source="LAP7pbj2NF0N0nWJ8ouf-905" edge="1">
          <mxGeometry width="50" height="50" relative="1" as="geometry">
            <mxPoint x="-190" y="-720" as="sourcePoint" />
            <mxPoint x="-190" y="-900" as="targetPoint" />
          </mxGeometry>
        </mxCell>
        <mxCell id="LAP7pbj2NF0N0nWJ8ouf-892" value="&lt;b&gt;&lt;font style=&quot;font-size: 16px;&quot;&gt;Notifications&lt;/font&gt;&lt;/b&gt;" style="swimlane;fontStyle=0;childLayout=stackLayout;horizontal=1;startSize=30;horizontalStack=0;resizeParent=1;resizeParentMax=0;resizeLast=0;collapsible=1;marginBottom=0;whiteSpace=wrap;html=1;" parent="1" vertex="1">
          <mxGeometry x="-220" y="-930" width="140" height="240" as="geometry" />
        </mxCell>
        <mxCell id="LAP7pbj2NF0N0nWJ8ouf-893" value="" style="endArrow=none;html=1;rounded=0;" parent="1" edge="1">
          <mxGeometry width="50" height="50" relative="1" as="geometry">
            <mxPoint x="-220" y="-870" as="sourcePoint" />
            <mxPoint x="-80" y="-870" as="targetPoint" />
          </mxGeometry>
        </mxCell>
        <mxCell id="LAP7pbj2NF0N0nWJ8ouf-894" value="&lt;b&gt;PK&lt;/b&gt;" style="text;html=1;strokeColor=none;fillColor=none;align=center;verticalAlign=middle;whiteSpace=wrap;rounded=0;" parent="1" vertex="1">
          <mxGeometry x="-220" y="-900" width="30" height="30" as="geometry" />
        </mxCell>
        <mxCell id="LAP7pbj2NF0N0nWJ8ouf-895" value="title" style="text;html=1;strokeColor=none;fillColor=none;align=center;verticalAlign=middle;whiteSpace=wrap;rounded=0;" parent="1" vertex="1">
          <mxGeometry x="-180" y="-870" width="100" height="30" as="geometry" />
        </mxCell>
        <mxCell id="LAP7pbj2NF0N0nWJ8ouf-896" value="notify_id" style="text;html=1;strokeColor=none;fillColor=none;align=center;verticalAlign=middle;whiteSpace=wrap;rounded=0;" parent="1" vertex="1">
          <mxGeometry x="-190" y="-900" width="110" height="30" as="geometry" />
        </mxCell>
        <mxCell id="LAP7pbj2NF0N0nWJ8ouf-897" value="descriptions" style="text;html=1;strokeColor=none;fillColor=none;align=center;verticalAlign=middle;whiteSpace=wrap;rounded=0;" parent="1" vertex="1">
          <mxGeometry x="-190" y="-840" width="110" height="30" as="geometry" />
        </mxCell>
        <mxCell id="LAP7pbj2NF0N0nWJ8ouf-898" value="farmer_email" style="text;html=1;strokeColor=none;fillColor=none;align=center;verticalAlign=middle;whiteSpace=wrap;rounded=0;" parent="1" vertex="1">
          <mxGeometry x="-190" y="-810" width="110" height="30" as="geometry" />
        </mxCell>
        <mxCell id="LAP7pbj2NF0N0nWJ8ouf-899" value="notify_date" style="text;html=1;strokeColor=none;fillColor=none;align=center;verticalAlign=middle;whiteSpace=wrap;rounded=0;" parent="1" vertex="1">
          <mxGeometry x="-190" y="-780" width="110" height="30" as="geometry" />
        </mxCell>
        <mxCell id="LAP7pbj2NF0N0nWJ8ouf-900" value="food_id" style="text;html=1;strokeColor=none;fillColor=none;align=center;verticalAlign=middle;whiteSpace=wrap;rounded=0;" parent="1" vertex="1">
          <mxGeometry x="-190" y="-750" width="110" height="30" as="geometry" />
        </mxCell>
        <mxCell id="LAP7pbj2NF0N0nWJ8ouf-901" value="" style="endArrow=none;html=1;rounded=0;entryX=1;entryY=0;entryDx=0;entryDy=0;" parent="1" target="LAP7pbj2NF0N0nWJ8ouf-900" edge="1">
          <mxGeometry width="50" height="50" relative="1" as="geometry">
            <mxPoint x="-220" y="-750" as="sourcePoint" />
            <mxPoint x="-140" y="-780" as="targetPoint" />
          </mxGeometry>
        </mxCell>
        <mxCell id="LAP7pbj2NF0N0nWJ8ouf-902" value="FK" style="text;html=1;strokeColor=none;fillColor=none;align=center;verticalAlign=middle;whiteSpace=wrap;rounded=0;" parent="1" vertex="1">
          <mxGeometry x="-220" y="-750" width="30" height="30" as="geometry" />
        </mxCell>
        <mxCell id="LAP7pbj2NF0N0nWJ8ouf-903" value="volunteer_id" style="text;html=1;strokeColor=none;fillColor=none;align=center;verticalAlign=middle;whiteSpace=wrap;rounded=0;" parent="1" vertex="1">
          <mxGeometry x="-190" y="-720" width="110" height="30" as="geometry" />
        </mxCell>
        <mxCell id="LAP7pbj2NF0N0nWJ8ouf-904" value="" style="endArrow=none;html=1;rounded=0;entryX=1;entryY=0;entryDx=0;entryDy=0;exitX=0;exitY=1;exitDx=0;exitDy=0;" parent="1" source="LAP7pbj2NF0N0nWJ8ouf-902" target="LAP7pbj2NF0N0nWJ8ouf-903" edge="1">
          <mxGeometry width="50" height="50" relative="1" as="geometry">
            <mxPoint x="-210" y="-740" as="sourcePoint" />
            <mxPoint x="-130" y="-770" as="targetPoint" />
          </mxGeometry>
        </mxCell>
        <mxCell id="LAP7pbj2NF0N0nWJ8ouf-905" value="FK" style="text;html=1;strokeColor=none;fillColor=none;align=center;verticalAlign=middle;whiteSpace=wrap;rounded=0;" parent="1" vertex="1">
          <mxGeometry x="-220" y="-720" width="30" height="30" as="geometry" />
        </mxCell>
        <mxCell id="LAP7pbj2NF0N0nWJ8ouf-906" value="" style="endArrow=none;html=1;rounded=0;strokeWidth=1;endSize=6;jumpSize=6;exitX=0;exitY=1;exitDx=0;exitDy=0;" parent="1" source="LAP7pbj2NF0N0nWJ8ouf-918" edge="1">
          <mxGeometry width="50" height="50" relative="1" as="geometry">
            <mxPoint x="-480" y="-290" as="sourcePoint" />
            <mxPoint x="-480" y="-500" as="targetPoint" />
          </mxGeometry>
        </mxCell>
        <mxCell id="LAP7pbj2NF0N0nWJ8ouf-907" value="&lt;b&gt;&lt;font style=&quot;font-size: 16px;&quot;&gt;NGOs&lt;/font&gt;&lt;/b&gt;" style="swimlane;fontStyle=0;childLayout=stackLayout;horizontal=1;startSize=30;horizontalStack=0;resizeParent=1;resizeParentMax=0;resizeLast=0;collapsible=1;marginBottom=0;whiteSpace=wrap;html=1;" parent="1" vertex="1">
          <mxGeometry x="-510" y="-530" width="140" height="270" as="geometry" />
        </mxCell>
        <mxCell id="LAP7pbj2NF0N0nWJ8ouf-908" value="" style="endArrow=none;html=1;rounded=0;" parent="1" edge="1">
          <mxGeometry width="50" height="50" relative="1" as="geometry">
            <mxPoint x="-510" y="-470" as="sourcePoint" />
            <mxPoint x="-370" y="-470" as="targetPoint" />
          </mxGeometry>
        </mxCell>
        <mxCell id="LAP7pbj2NF0N0nWJ8ouf-909" value="&lt;b&gt;PK&lt;/b&gt;" style="text;html=1;strokeColor=none;fillColor=none;align=center;verticalAlign=middle;whiteSpace=wrap;rounded=0;" parent="1" vertex="1">
          <mxGeometry x="-510" y="-500" width="30" height="30" as="geometry" />
        </mxCell>
        <mxCell id="LAP7pbj2NF0N0nWJ8ouf-910" value="ngo_name" style="text;html=1;strokeColor=none;fillColor=none;align=center;verticalAlign=middle;whiteSpace=wrap;rounded=0;" parent="1" vertex="1">
          <mxGeometry x="-480" y="-470" width="110" height="30" as="geometry" />
        </mxCell>
        <mxCell id="LAP7pbj2NF0N0nWJ8ouf-911" value="established_date" style="text;html=1;strokeColor=none;fillColor=none;align=center;verticalAlign=middle;whiteSpace=wrap;rounded=0;" parent="1" vertex="1">
          <mxGeometry x="-470" y="-340" width="100" height="20" as="geometry" />
        </mxCell>
        <mxCell id="LAP7pbj2NF0N0nWJ8ouf-912" value="ngo_address" style="text;html=1;strokeColor=none;fillColor=none;align=center;verticalAlign=middle;whiteSpace=wrap;rounded=0;" parent="1" vertex="1">
          <mxGeometry x="-480" y="-380" width="110" height="30" as="geometry" />
        </mxCell>
        <mxCell id="LAP7pbj2NF0N0nWJ8ouf-913" style="edgeStyle=orthogonalEdgeStyle;rounded=0;orthogonalLoop=1;jettySize=auto;html=1;exitX=1;exitY=0.5;exitDx=0;exitDy=0;entryX=0;entryY=0.5;entryDx=0;entryDy=0;endArrow=ERoneToMany;endFill=0;startArrow=ERmandOne;startFill=0;" parent="1" source="LAP7pbj2NF0N0nWJ8ouf-914" target="LAP7pbj2NF0N0nWJ8ouf-890" edge="1">
          <mxGeometry relative="1" as="geometry" />
        </mxCell>
        <mxCell id="LAP7pbj2NF0N0nWJ8ouf-914" value="ngo_id" style="text;html=1;strokeColor=none;fillColor=none;align=center;verticalAlign=middle;whiteSpace=wrap;rounded=0;" parent="1" vertex="1">
          <mxGeometry x="-480" y="-500" width="110" height="30" as="geometry" />
        </mxCell>
        <mxCell id="LAP7pbj2NF0N0nWJ8ouf-915" value="telephone_no" style="text;html=1;strokeColor=none;fillColor=none;align=center;verticalAlign=middle;whiteSpace=wrap;rounded=0;" parent="1" vertex="1">
          <mxGeometry x="-480" y="-440" width="110" height="30" as="geometry" />
        </mxCell>
        <mxCell id="LAP7pbj2NF0N0nWJ8ouf-916" value="ngo_email" style="text;html=1;strokeColor=none;fillColor=none;align=center;verticalAlign=middle;whiteSpace=wrap;rounded=0;" parent="1" vertex="1">
          <mxGeometry x="-480" y="-410" width="110" height="30" as="geometry" />
        </mxCell>
        <mxCell id="LAP7pbj2NF0N0nWJ8ouf-917" value="ngo_descriptions" style="text;html=1;strokeColor=none;fillColor=none;align=center;verticalAlign=middle;whiteSpace=wrap;rounded=0;" parent="1" vertex="1">
          <mxGeometry x="-480" y="-320" width="110" height="30" as="geometry" />
        </mxCell>
        <mxCell id="LAP7pbj2NF0N0nWJ8ouf-918" value="ngo_logo_img" style="text;html=1;strokeColor=none;fillColor=none;align=center;verticalAlign=middle;whiteSpace=wrap;rounded=0;" parent="1" vertex="1">
          <mxGeometry x="-480" y="-290" width="105" height="30" as="geometry" />
        </mxCell>
        <mxCell id="LAP7pbj2NF0N0nWJ8ouf-919" value="&lt;b&gt;&lt;font style=&quot;font-size: 25px;&quot;&gt;Initial ERD&lt;/font&gt;&lt;/b&gt;" style="text;html=1;strokeColor=none;fillColor=none;align=center;verticalAlign=middle;whiteSpace=wrap;rounded=0;" parent="1" vertex="1">
          <mxGeometry x="180" y="-1030" width="170" height="30" as="geometry" />
        </mxCell>
        <mxCell id="LAP7pbj2NF0N0nWJ8ouf-920" value="&lt;b&gt;&lt;font style=&quot;font-size: 25px;&quot;&gt;Imagination&lt;/font&gt;&lt;/b&gt;" style="text;html=1;strokeColor=none;fillColor=none;align=center;verticalAlign=middle;whiteSpace=wrap;rounded=0;" parent="1" vertex="1">
          <mxGeometry x="-500" y="-1040" width="170" height="30" as="geometry" />
        </mxCell>
        <mxCell id="zX-LUn7_PTtVlo5h9AN5-1" value="donor&lt;br&gt;_dob" style="ellipse;whiteSpace=wrap;html=1;" parent="1" vertex="1">
          <mxGeometry x="280" y="-615" width="85" height="50" as="geometry" />
        </mxCell>
        <mxCell id="zX-LUn7_PTtVlo5h9AN5-3" style="rounded=0;orthogonalLoop=1;jettySize=auto;html=1;exitX=0.75;exitY=1;exitDx=0;exitDy=0;entryX=0;entryY=0;entryDx=0;entryDy=0;" parent="1" source="LAP7pbj2NF0N0nWJ8ouf-791" target="zX-LUn7_PTtVlo5h9AN5-1" edge="1">
          <mxGeometry relative="1" as="geometry">
            <mxPoint x="256.07" y="-640" as="sourcePoint" />
            <mxPoint x="256.07" y="-580" as="targetPoint" />
          </mxGeometry>
        </mxCell>
        <mxCell id="zX-LUn7_PTtVlo5h9AN5-4" value="farmer&lt;br&gt;_dob" style="ellipse;whiteSpace=wrap;html=1;" parent="1" vertex="1">
          <mxGeometry x="715.5" y="-900" width="85" height="50" as="geometry" />
        </mxCell>
        <mxCell id="zX-LUn7_PTtVlo5h9AN5-5" style="rounded=0;orthogonalLoop=1;jettySize=auto;html=1;exitX=0.75;exitY=1;exitDx=0;exitDy=0;entryX=0;entryY=0;entryDx=0;entryDy=0;" parent="1" source="LAP7pbj2NF0N0nWJ8ouf-782" target="zX-LUn7_PTtVlo5h9AN5-4" edge="1">
          <mxGeometry relative="1" as="geometry">
            <mxPoint x="660" y="-915" as="sourcePoint" />
            <mxPoint x="666.0699999999999" y="-855" as="targetPoint" />
          </mxGeometry>
        </mxCell>
        <mxCell id="bBHgA4-Q73oU8lgYVRvi-48" value="" style="group" parent="1" vertex="1" connectable="0">
          <mxGeometry x="-800" y="61.25" width="162.5" height="481.25" as="geometry" />
        </mxCell>
        <mxCell id="LAP7pbj2NF0N0nWJ8ouf-695" value="" style="endArrow=none;html=1;rounded=0;strokeWidth=1;endSize=6;jumpSize=6;exitX=0;exitY=1;exitDx=0;exitDy=0;" parent="bBHgA4-Q73oU8lgYVRvi-48" source="LAP7pbj2NF0N0nWJ8ouf-706" edge="1">
          <mxGeometry width="50" height="50" relative="1" as="geometry">
            <mxPoint x="34.21052631578947" y="240" as="sourcePoint" />
            <mxPoint x="34.21052631578947" y="30" as="targetPoint" />
          </mxGeometry>
        </mxCell>
        <mxCell id="LAP7pbj2NF0N0nWJ8ouf-696" value="&lt;b&gt;&lt;font style=&quot;font-size: 16px;&quot;&gt;NGOs&lt;/font&gt;&lt;/b&gt;" style="swimlane;fontStyle=0;childLayout=stackLayout;horizontal=1;startSize=30;horizontalStack=0;resizeParent=1;resizeParentMax=0;resizeLast=0;collapsible=1;marginBottom=0;whiteSpace=wrap;html=1;" parent="bBHgA4-Q73oU8lgYVRvi-48" vertex="1">
          <mxGeometry width="162.5" height="481.25" as="geometry" />
        </mxCell>
        <mxCell id="LAP7pbj2NF0N0nWJ8ouf-697" value="" style="endArrow=none;html=1;rounded=0;" parent="bBHgA4-Q73oU8lgYVRvi-48" edge="1">
          <mxGeometry width="50" height="50" relative="1" as="geometry">
            <mxPoint y="60" as="sourcePoint" />
            <mxPoint x="162.5" y="61.25" as="targetPoint" />
          </mxGeometry>
        </mxCell>
        <mxCell id="LAP7pbj2NF0N0nWJ8ouf-698" value="&lt;b&gt;PK&lt;/b&gt;" style="text;html=1;strokeColor=none;fillColor=none;align=center;verticalAlign=middle;whiteSpace=wrap;rounded=0;" parent="bBHgA4-Q73oU8lgYVRvi-48" vertex="1">
          <mxGeometry y="30" width="34.21052631578947" height="30" as="geometry" />
        </mxCell>
        <mxCell id="LAP7pbj2NF0N0nWJ8ouf-699" value="ngo_name" style="text;html=1;strokeColor=none;fillColor=none;align=center;verticalAlign=middle;whiteSpace=wrap;rounded=0;" parent="bBHgA4-Q73oU8lgYVRvi-48" vertex="1">
          <mxGeometry x="34.21052631578947" y="60" width="128.28947368421052" height="30" as="geometry" />
        </mxCell>
        <mxCell id="LAP7pbj2NF0N0nWJ8ouf-700" value="ngo_location" style="text;html=1;strokeColor=none;fillColor=none;align=center;verticalAlign=middle;whiteSpace=wrap;rounded=0;" parent="bBHgA4-Q73oU8lgYVRvi-48" vertex="1">
          <mxGeometry x="37.06140350877193" y="181.25" width="122.58771929824562" height="28.75" as="geometry" />
        </mxCell>
        <mxCell id="LAP7pbj2NF0N0nWJ8ouf-701" value="ngo_address" style="text;html=1;strokeColor=none;fillColor=none;align=center;verticalAlign=middle;whiteSpace=wrap;rounded=0;" parent="bBHgA4-Q73oU8lgYVRvi-48" vertex="1">
          <mxGeometry x="34.21052631578947" y="150" width="125.43859649122807" height="30" as="geometry" />
        </mxCell>
        <mxCell id="LAP7pbj2NF0N0nWJ8ouf-702" value="ngo_id" style="text;html=1;strokeColor=none;fillColor=none;align=center;verticalAlign=middle;whiteSpace=wrap;rounded=0;" parent="bBHgA4-Q73oU8lgYVRvi-48" vertex="1">
          <mxGeometry x="34.21052631578947" y="30" width="128.28947368421052" height="30" as="geometry" />
        </mxCell>
        <mxCell id="LAP7pbj2NF0N0nWJ8ouf-703" value="ngo_contact" style="text;html=1;strokeColor=none;fillColor=none;align=center;verticalAlign=middle;whiteSpace=wrap;rounded=0;" parent="bBHgA4-Q73oU8lgYVRvi-48" vertex="1">
          <mxGeometry x="34.21052631578947" y="90" width="125.43859649122807" height="30" as="geometry" />
        </mxCell>
        <mxCell id="LAP7pbj2NF0N0nWJ8ouf-704" value="ngo_email" style="text;html=1;strokeColor=none;fillColor=none;align=center;verticalAlign=middle;whiteSpace=wrap;rounded=0;" parent="bBHgA4-Q73oU8lgYVRvi-48" vertex="1">
          <mxGeometry x="34.21052631578947" y="120" width="125.43859649122807" height="30" as="geometry" />
        </mxCell>
        <mxCell id="LAP7pbj2NF0N0nWJ8ouf-705" value="established_date" style="text;html=1;strokeColor=none;fillColor=none;align=center;verticalAlign=middle;whiteSpace=wrap;rounded=0;" parent="bBHgA4-Q73oU8lgYVRvi-48" vertex="1">
          <mxGeometry x="34.21052631578947" y="210" width="125.43859649122807" height="30" as="geometry" />
        </mxCell>
        <mxCell id="LAP7pbj2NF0N0nWJ8ouf-706" value="ngo_logo_img" style="text;html=1;strokeColor=none;fillColor=none;align=center;verticalAlign=middle;whiteSpace=wrap;rounded=0;" parent="bBHgA4-Q73oU8lgYVRvi-48" vertex="1">
          <mxGeometry x="34.21052631578947" y="451.25" width="119.73684210526315" height="30" as="geometry" />
        </mxCell>
        <mxCell id="bBHgA4-Q73oU8lgYVRvi-8" value="abouts_ngo" style="text;html=1;strokeColor=none;fillColor=none;align=center;verticalAlign=middle;whiteSpace=wrap;rounded=0;" parent="bBHgA4-Q73oU8lgYVRvi-48" vertex="1">
          <mxGeometry x="37.06140350877193" y="241.25" width="125.43859649122807" height="30" as="geometry" />
        </mxCell>
        <mxCell id="bBHgA4-Q73oU8lgYVRvi-9" value="image_url" style="text;html=1;strokeColor=none;fillColor=none;align=center;verticalAlign=middle;whiteSpace=wrap;rounded=0;" parent="bBHgA4-Q73oU8lgYVRvi-48" vertex="1">
          <mxGeometry x="37.06140350877193" y="271.25" width="125.43859649122807" height="30" as="geometry" />
        </mxCell>
        <mxCell id="bBHgA4-Q73oU8lgYVRvi-10" value="created_by" style="text;html=1;strokeColor=none;fillColor=none;align=center;verticalAlign=middle;whiteSpace=wrap;rounded=0;" parent="bBHgA4-Q73oU8lgYVRvi-48" vertex="1">
          <mxGeometry x="37.06140350877193" y="302.5" width="125.43859649122807" height="30" as="geometry" />
        </mxCell>
        <mxCell id="bBHgA4-Q73oU8lgYVRvi-11" value="created_date" style="text;html=1;strokeColor=none;fillColor=none;align=center;verticalAlign=middle;whiteSpace=wrap;rounded=0;" parent="bBHgA4-Q73oU8lgYVRvi-48" vertex="1">
          <mxGeometry x="37.06140350877193" y="332.5" width="125.43859649122807" height="30" as="geometry" />
        </mxCell>
        <mxCell id="bBHgA4-Q73oU8lgYVRvi-12" value="modify_by" style="text;html=1;strokeColor=none;fillColor=none;align=center;verticalAlign=middle;whiteSpace=wrap;rounded=0;" parent="bBHgA4-Q73oU8lgYVRvi-48" vertex="1">
          <mxGeometry x="37.06140350877193" y="362.5" width="125.43859649122807" height="30" as="geometry" />
        </mxCell>
        <mxCell id="bBHgA4-Q73oU8lgYVRvi-13" value="modify_date" style="text;html=1;strokeColor=none;fillColor=none;align=center;verticalAlign=middle;whiteSpace=wrap;rounded=0;" parent="bBHgA4-Q73oU8lgYVRvi-48" vertex="1">
          <mxGeometry x="37.06140350877193" y="392.5" width="125.43859649122807" height="30" as="geometry" />
        </mxCell>
        <mxCell id="bBHgA4-Q73oU8lgYVRvi-14" value="is_delete" style="text;html=1;strokeColor=none;fillColor=none;align=center;verticalAlign=middle;whiteSpace=wrap;rounded=0;" parent="bBHgA4-Q73oU8lgYVRvi-48" vertex="1">
          <mxGeometry x="37.06140350877193" y="431.25" width="125.43859649122807" height="18.75" as="geometry" />
        </mxCell>
        <mxCell id="bBHgA4-Q73oU8lgYVRvi-49" value="" style="group" parent="1" vertex="1" connectable="0">
          <mxGeometry x="-520" y="61.25" width="170" height="570" as="geometry" />
        </mxCell>
        <mxCell id="LAP7pbj2NF0N0nWJ8ouf-709" value="" style="endArrow=none;html=1;rounded=0;strokeWidth=1;endSize=6;jumpSize=6;exitX=0;exitY=1;exitDx=0;exitDy=0;" parent="bBHgA4-Q73oU8lgYVRvi-49" source="LAP7pbj2NF0N0nWJ8ouf-719" edge="1">
          <mxGeometry width="50" height="50" relative="1" as="geometry">
            <mxPoint x="31.384615384615387" y="208.75" as="sourcePoint" />
            <mxPoint x="31.384615384615387" y="28.75" as="targetPoint" />
          </mxGeometry>
        </mxCell>
        <mxCell id="LAP7pbj2NF0N0nWJ8ouf-710" value="&lt;b&gt;&lt;font style=&quot;font-size: 16px;&quot;&gt;Users&lt;/font&gt;&lt;/b&gt;" style="swimlane;fontStyle=0;childLayout=stackLayout;horizontal=1;startSize=30;horizontalStack=0;resizeParent=1;resizeParentMax=0;resizeLast=0;collapsible=1;marginBottom=0;whiteSpace=wrap;html=1;" parent="bBHgA4-Q73oU8lgYVRvi-49" vertex="1">
          <mxGeometry width="170" height="570" as="geometry" />
        </mxCell>
        <mxCell id="bBHgA4-Q73oU8lgYVRvi-16" value="" style="endArrow=none;html=1;rounded=0;entryX=1;entryY=1;entryDx=0;entryDy=0;" parent="LAP7pbj2NF0N0nWJ8ouf-710" target="bBHgA4-Q73oU8lgYVRvi-27" edge="1">
          <mxGeometry width="50" height="50" relative="1" as="geometry">
            <mxPoint y="536" as="sourcePoint" />
            <mxPoint x="151.6923076923077" y="536.2500000000002" as="targetPoint" />
          </mxGeometry>
        </mxCell>
        <mxCell id="LAP7pbj2NF0N0nWJ8ouf-711" value="" style="endArrow=none;html=1;rounded=0;entryX=1;entryY=1;entryDx=0;entryDy=0;" parent="bBHgA4-Q73oU8lgYVRvi-49" target="LAP7pbj2NF0N0nWJ8ouf-716" edge="1">
          <mxGeometry width="50" height="50" relative="1" as="geometry">
            <mxPoint y="58.75" as="sourcePoint" />
            <mxPoint x="146.46153846153848" y="58.75" as="targetPoint" />
          </mxGeometry>
        </mxCell>
        <mxCell id="LAP7pbj2NF0N0nWJ8ouf-712" value="&lt;b&gt;PK&lt;/b&gt;" style="text;html=1;strokeColor=none;fillColor=none;align=center;verticalAlign=middle;whiteSpace=wrap;rounded=0;" parent="bBHgA4-Q73oU8lgYVRvi-49" vertex="1">
          <mxGeometry y="28.75" width="31.384615384615387" height="25" as="geometry" />
        </mxCell>
        <mxCell id="LAP7pbj2NF0N0nWJ8ouf-713" value="username" style="text;html=1;strokeColor=none;fillColor=none;align=center;verticalAlign=middle;whiteSpace=wrap;rounded=0;" parent="bBHgA4-Q73oU8lgYVRvi-49" vertex="1">
          <mxGeometry x="31.384615384615387" y="58.75" width="136" height="30" as="geometry" />
        </mxCell>
        <mxCell id="LAP7pbj2NF0N0nWJ8ouf-714" value="gender" style="text;html=1;strokeColor=none;fillColor=none;align=center;verticalAlign=middle;whiteSpace=wrap;rounded=0;" parent="bBHgA4-Q73oU8lgYVRvi-49" vertex="1">
          <mxGeometry x="31.384615384615387" y="178.75" width="136" height="30" as="geometry" />
        </mxCell>
        <mxCell id="LAP7pbj2NF0N0nWJ8ouf-715" value="address" style="text;html=1;strokeColor=none;fillColor=none;align=center;verticalAlign=middle;whiteSpace=wrap;rounded=0;" parent="bBHgA4-Q73oU8lgYVRvi-49" vertex="1">
          <mxGeometry x="31.384615384615387" y="148.75" width="136" height="30" as="geometry" />
        </mxCell>
        <mxCell id="LAP7pbj2NF0N0nWJ8ouf-716" value="user_id" style="text;html=1;strokeColor=none;fillColor=none;align=center;verticalAlign=middle;whiteSpace=wrap;rounded=0;" parent="bBHgA4-Q73oU8lgYVRvi-49" vertex="1">
          <mxGeometry x="31.38" y="28.75" width="138.62" height="30" as="geometry" />
        </mxCell>
        <mxCell id="LAP7pbj2NF0N0nWJ8ouf-717" value="email" style="text;html=1;strokeColor=none;fillColor=none;align=center;verticalAlign=middle;whiteSpace=wrap;rounded=0;" parent="bBHgA4-Q73oU8lgYVRvi-49" vertex="1">
          <mxGeometry x="31.384615384615387" y="88.75" width="136" height="30" as="geometry" />
        </mxCell>
        <mxCell id="LAP7pbj2NF0N0nWJ8ouf-718" value="phone_no" style="text;html=1;strokeColor=none;fillColor=none;align=center;verticalAlign=middle;whiteSpace=wrap;rounded=0;" parent="bBHgA4-Q73oU8lgYVRvi-49" vertex="1">
          <mxGeometry x="31.384615384615387" y="118.75" width="136" height="30" as="geometry" />
        </mxCell>
        <mxCell id="LAP7pbj2NF0N0nWJ8ouf-719" value="ngo_id" style="text;html=1;strokeColor=none;fillColor=none;align=center;verticalAlign=middle;whiteSpace=wrap;rounded=0;" parent="bBHgA4-Q73oU8lgYVRvi-49" vertex="1">
          <mxGeometry x="34" y="536.25" width="136" height="33.75" as="geometry" />
        </mxCell>
        <mxCell id="bBHgA4-Q73oU8lgYVRvi-17" value="role" style="text;html=1;strokeColor=none;fillColor=none;align=center;verticalAlign=middle;whiteSpace=wrap;rounded=0;" parent="bBHgA4-Q73oU8lgYVRvi-49" vertex="1">
          <mxGeometry x="34" y="208.75" width="136" height="30" as="geometry" />
        </mxCell>
        <mxCell id="bBHgA4-Q73oU8lgYVRvi-18" value="date_of_birth" style="text;html=1;strokeColor=none;fillColor=none;align=center;verticalAlign=middle;whiteSpace=wrap;rounded=0;" parent="bBHgA4-Q73oU8lgYVRvi-49" vertex="1">
          <mxGeometry x="34" y="238.75" width="136" height="30" as="geometry" />
        </mxCell>
        <mxCell id="bBHgA4-Q73oU8lgYVRvi-19" value="image_url" style="text;html=1;strokeColor=none;fillColor=none;align=center;verticalAlign=middle;whiteSpace=wrap;rounded=0;" parent="bBHgA4-Q73oU8lgYVRvi-49" vertex="1">
          <mxGeometry x="34" y="270" width="136" height="30" as="geometry" />
        </mxCell>
        <mxCell id="bBHgA4-Q73oU8lgYVRvi-20" value="abouts_user" style="text;html=1;strokeColor=none;fillColor=none;align=center;verticalAlign=middle;whiteSpace=wrap;rounded=0;" parent="bBHgA4-Q73oU8lgYVRvi-49" vertex="1">
          <mxGeometry x="34" y="300" width="136" height="30" as="geometry" />
        </mxCell>
        <mxCell id="bBHgA4-Q73oU8lgYVRvi-21" value="is_admin" style="text;html=1;strokeColor=none;fillColor=none;align=center;verticalAlign=middle;whiteSpace=wrap;rounded=0;" parent="bBHgA4-Q73oU8lgYVRvi-49" vertex="1">
          <mxGeometry x="34" y="331.25" width="136" height="30" as="geometry" />
        </mxCell>
        <mxCell id="bBHgA4-Q73oU8lgYVRvi-22" value="is_active" style="text;html=1;strokeColor=none;fillColor=none;align=center;verticalAlign=middle;whiteSpace=wrap;rounded=0;" parent="bBHgA4-Q73oU8lgYVRvi-49" vertex="1">
          <mxGeometry x="34" y="361.25" width="136" height="30" as="geometry" />
        </mxCell>
        <mxCell id="bBHgA4-Q73oU8lgYVRvi-23" value="created_by" style="text;html=1;strokeColor=none;fillColor=none;align=center;verticalAlign=middle;whiteSpace=wrap;rounded=0;" parent="bBHgA4-Q73oU8lgYVRvi-49" vertex="1">
          <mxGeometry x="34" y="391.25" width="136" height="30" as="geometry" />
        </mxCell>
        <mxCell id="bBHgA4-Q73oU8lgYVRvi-24" value="created_date" style="text;html=1;strokeColor=none;fillColor=none;align=center;verticalAlign=middle;whiteSpace=wrap;rounded=0;" parent="bBHgA4-Q73oU8lgYVRvi-49" vertex="1">
          <mxGeometry x="34" y="420" width="136" height="28.75" as="geometry" />
        </mxCell>
        <mxCell id="bBHgA4-Q73oU8lgYVRvi-25" value="modify_by" style="text;html=1;strokeColor=none;fillColor=none;align=center;verticalAlign=middle;whiteSpace=wrap;rounded=0;" parent="bBHgA4-Q73oU8lgYVRvi-49" vertex="1">
          <mxGeometry x="34" y="450" width="136" height="28.75" as="geometry" />
        </mxCell>
        <mxCell id="bBHgA4-Q73oU8lgYVRvi-26" value="modify_date" style="text;html=1;strokeColor=none;fillColor=none;align=center;verticalAlign=middle;whiteSpace=wrap;rounded=0;" parent="bBHgA4-Q73oU8lgYVRvi-49" vertex="1">
          <mxGeometry x="34" y="478.75" width="136" height="28.75" as="geometry" />
        </mxCell>
        <mxCell id="bBHgA4-Q73oU8lgYVRvi-27" value="is_delete" style="text;html=1;strokeColor=none;fillColor=none;align=center;verticalAlign=middle;whiteSpace=wrap;rounded=0;" parent="bBHgA4-Q73oU8lgYVRvi-49" vertex="1">
          <mxGeometry x="34" y="507.5" width="136" height="28.75" as="geometry" />
        </mxCell>
        <mxCell id="bBHgA4-Q73oU8lgYVRvi-30" value="&lt;b&gt;FK&lt;/b&gt;" style="text;html=1;strokeColor=none;fillColor=none;align=center;verticalAlign=middle;whiteSpace=wrap;rounded=0;" parent="bBHgA4-Q73oU8lgYVRvi-49" vertex="1">
          <mxGeometry y="536.25" width="34" height="33.75" as="geometry" />
        </mxCell>
        <mxCell id="bBHgA4-Q73oU8lgYVRvi-50" value="" style="group" parent="1" vertex="1" connectable="0">
          <mxGeometry x="-200" y="230" width="160" height="260" as="geometry" />
        </mxCell>
        <mxCell id="bBHgA4-Q73oU8lgYVRvi-31" value="" style="endArrow=none;html=1;rounded=0;strokeWidth=1;endSize=6;jumpSize=6;exitX=1;exitY=1;exitDx=0;exitDy=0;" parent="bBHgA4-Q73oU8lgYVRvi-50" source="bBHgA4-Q73oU8lgYVRvi-45" edge="1">
          <mxGeometry width="50" height="50" relative="1" as="geometry">
            <mxPoint x="34.285714285714285" y="267.5" as="sourcePoint" />
            <mxPoint x="34.285714285714285" y="72.5" as="targetPoint" />
          </mxGeometry>
        </mxCell>
        <mxCell id="bBHgA4-Q73oU8lgYVRvi-32" value="&lt;b&gt;&lt;font style=&quot;font-size: 16px;&quot;&gt;Notifications&lt;/font&gt;&lt;/b&gt;" style="swimlane;fontStyle=0;childLayout=stackLayout;horizontal=1;startSize=30;horizontalStack=0;resizeParent=1;resizeParentMax=0;resizeLast=0;collapsible=1;marginBottom=0;whiteSpace=wrap;html=1;" parent="bBHgA4-Q73oU8lgYVRvi-50" vertex="1">
          <mxGeometry y="40" width="160" height="247.6190476190476" as="geometry" />
        </mxCell>
        <mxCell id="bBHgA4-Q73oU8lgYVRvi-33" value="" style="endArrow=none;html=1;rounded=0;" parent="bBHgA4-Q73oU8lgYVRvi-50" edge="1">
          <mxGeometry width="50" height="50" relative="1" as="geometry">
            <mxPoint y="105" as="sourcePoint" />
            <mxPoint x="160" y="105" as="targetPoint" />
          </mxGeometry>
        </mxCell>
        <mxCell id="bBHgA4-Q73oU8lgYVRvi-34" value="&lt;b&gt;PK&lt;/b&gt;" style="text;html=1;strokeColor=none;fillColor=none;align=center;verticalAlign=middle;whiteSpace=wrap;rounded=0;" parent="bBHgA4-Q73oU8lgYVRvi-50" vertex="1">
          <mxGeometry y="72.5" width="34.285714285714285" height="32.5" as="geometry" />
        </mxCell>
        <mxCell id="bBHgA4-Q73oU8lgYVRvi-35" value="title" style="text;html=1;strokeColor=none;fillColor=none;align=center;verticalAlign=middle;whiteSpace=wrap;rounded=0;" parent="bBHgA4-Q73oU8lgYVRvi-50" vertex="1">
          <mxGeometry x="40" y="105" width="120" height="25" as="geometry" />
        </mxCell>
        <mxCell id="bBHgA4-Q73oU8lgYVRvi-36" value="notification_id" style="text;html=1;strokeColor=none;fillColor=none;align=center;verticalAlign=middle;whiteSpace=wrap;rounded=0;" parent="bBHgA4-Q73oU8lgYVRvi-50" vertex="1">
          <mxGeometry x="34.285714285714285" y="72.5" width="125.71428571428571" height="32.5" as="geometry" />
        </mxCell>
        <mxCell id="bBHgA4-Q73oU8lgYVRvi-38" value="description" style="text;html=1;strokeColor=none;fillColor=none;align=center;verticalAlign=middle;whiteSpace=wrap;rounded=0;" parent="bBHgA4-Q73oU8lgYVRvi-50" vertex="1">
          <mxGeometry x="34.29" y="126.66666666666666" width="125.71" height="32.5" as="geometry" />
        </mxCell>
        <mxCell id="bBHgA4-Q73oU8lgYVRvi-39" value="created_date" style="text;html=1;strokeColor=none;fillColor=none;align=center;verticalAlign=middle;whiteSpace=wrap;rounded=0;" parent="bBHgA4-Q73oU8lgYVRvi-50" vertex="1">
          <mxGeometry x="34.29" y="160" width="125.71" height="30" as="geometry" />
        </mxCell>
        <mxCell id="bBHgA4-Q73oU8lgYVRvi-40" value="status" style="text;html=1;strokeColor=none;fillColor=none;align=center;verticalAlign=middle;whiteSpace=wrap;rounded=0;" parent="bBHgA4-Q73oU8lgYVRvi-50" vertex="1">
          <mxGeometry x="34.29" y="220" width="125.71" height="30" as="geometry" />
        </mxCell>
        <mxCell id="bBHgA4-Q73oU8lgYVRvi-43" value="food_id" style="text;html=1;strokeColor=none;fillColor=none;align=center;verticalAlign=middle;whiteSpace=wrap;rounded=0;" parent="bBHgA4-Q73oU8lgYVRvi-50" vertex="1">
          <mxGeometry x="34.29" y="250.47619047619045" width="125.71" height="37.14285714285714" as="geometry" />
        </mxCell>
        <mxCell id="bBHgA4-Q73oU8lgYVRvi-45" value="&lt;b&gt;FK&lt;/b&gt;" style="text;html=1;strokeColor=none;fillColor=none;align=center;verticalAlign=middle;whiteSpace=wrap;rounded=0;" parent="bBHgA4-Q73oU8lgYVRvi-50" vertex="1">
          <mxGeometry y="250.47619047619045" width="34.29" height="37.14285714285714" as="geometry" />
        </mxCell>
        <mxCell id="bBHgA4-Q73oU8lgYVRvi-44" value="" style="endArrow=none;html=1;rounded=0;exitX=0;exitY=0;exitDx=0;exitDy=0;entryX=1;entryY=0;entryDx=0;entryDy=0;" parent="bBHgA4-Q73oU8lgYVRvi-50" edge="1" target="bBHgA4-Q73oU8lgYVRvi-43" source="bBHgA4-Q73oU8lgYVRvi-45">
          <mxGeometry width="50" height="50" relative="1" as="geometry">
            <mxPoint x="140" y="250" as="sourcePoint" />
            <mxPoint x="300" y="250" as="targetPoint" />
          </mxGeometry>
        </mxCell>
        <mxCell id="bBHgA4-Q73oU8lgYVRvi-51" style="edgeStyle=orthogonalEdgeStyle;rounded=0;orthogonalLoop=1;jettySize=auto;html=1;exitX=1;exitY=0.5;exitDx=0;exitDy=0;entryX=0;entryY=0.5;entryDx=0;entryDy=0;endArrow=ERoneToMany;endFill=0;startArrow=ERmandOne;startFill=0;" parent="1" source="LAP7pbj2NF0N0nWJ8ouf-702" target="bBHgA4-Q73oU8lgYVRvi-30" edge="1">
          <mxGeometry relative="1" as="geometry" />
        </mxCell>
        <mxCell id="bBHgA4-Q73oU8lgYVRvi-52" style="edgeStyle=orthogonalEdgeStyle;rounded=0;orthogonalLoop=1;jettySize=auto;html=1;exitX=1;exitY=0.25;exitDx=0;exitDy=0;endArrow=ERzeroToMany;endFill=0;startArrow=ERoneToMany;startFill=0;entryX=0;entryY=0.5;entryDx=0;entryDy=0;" parent="1" source="LAP7pbj2NF0N0nWJ8ouf-716" target="EEeil7ubf3lTbF9aTNJX-17" edge="1">
          <mxGeometry relative="1" as="geometry">
            <Array as="points">
              <mxPoint x="-250" y="98" />
              <mxPoint x="-250" y="220" />
              <mxPoint x="-240" y="220" />
            </Array>
            <mxPoint x="-360" y="89.5" as="sourcePoint" />
            <mxPoint x="-210" y="300" as="targetPoint" />
          </mxGeometry>
        </mxCell>
        <mxCell id="bBHgA4-Q73oU8lgYVRvi-60" value="" style="group" parent="1" vertex="1" connectable="0">
          <mxGeometry x="-200" y="560" width="160.5" height="510" as="geometry" />
        </mxCell>
        <mxCell id="LAP7pbj2NF0N0nWJ8ouf-662" value="" style="endArrow=none;html=1;rounded=0;strokeWidth=1;endSize=6;jumpSize=6;exitX=0;exitY=1;exitDx=0;exitDy=0;" parent="bBHgA4-Q73oU8lgYVRvi-60" source="LAP7pbj2NF0N0nWJ8ouf-679" edge="1">
          <mxGeometry width="50" height="50" relative="1" as="geometry">
            <mxPoint x="34.84163701067616" y="360" as="sourcePoint" />
            <mxPoint x="34.84163701067616" y="30" as="targetPoint" />
          </mxGeometry>
        </mxCell>
        <mxCell id="LAP7pbj2NF0N0nWJ8ouf-663" value="&lt;b&gt;&lt;font style=&quot;font-size: 16px;&quot;&gt;Foods&lt;/font&gt;&lt;/b&gt;" style="swimlane;fontStyle=0;childLayout=stackLayout;horizontal=1;startSize=30;horizontalStack=0;resizeParent=1;resizeParentMax=0;resizeLast=0;collapsible=1;marginBottom=0;whiteSpace=wrap;html=1;" parent="bBHgA4-Q73oU8lgYVRvi-60" vertex="1">
          <mxGeometry x="0.5711743772241993" width="159.9288256227758" height="510" as="geometry" />
        </mxCell>
        <mxCell id="LAP7pbj2NF0N0nWJ8ouf-664" value="" style="endArrow=none;html=1;rounded=0;" parent="bBHgA4-Q73oU8lgYVRvi-60" edge="1">
          <mxGeometry width="50" height="50" relative="1" as="geometry">
            <mxPoint x="0.5711743772241993" y="60" as="sourcePoint" />
            <mxPoint x="160.5" y="60" as="targetPoint" />
          </mxGeometry>
        </mxCell>
        <mxCell id="LAP7pbj2NF0N0nWJ8ouf-665" value="&lt;b&gt;PK&lt;/b&gt;" style="text;html=1;strokeColor=none;fillColor=none;align=center;verticalAlign=middle;whiteSpace=wrap;rounded=0;" parent="bBHgA4-Q73oU8lgYVRvi-60" vertex="1">
          <mxGeometry x="0.5711743772241993" y="30" width="34.270462633451956" height="30" as="geometry" />
        </mxCell>
        <mxCell id="LAP7pbj2NF0N0nWJ8ouf-666" value="food_name" style="text;html=1;strokeColor=none;fillColor=none;align=center;verticalAlign=middle;whiteSpace=wrap;rounded=0;" parent="bBHgA4-Q73oU8lgYVRvi-60" vertex="1">
          <mxGeometry x="34.84163701067616" y="60" width="125.65836298932385" height="30" as="geometry" />
        </mxCell>
        <mxCell id="LAP7pbj2NF0N0nWJ8ouf-667" value="descriptions" style="text;html=1;strokeColor=none;fillColor=none;align=center;verticalAlign=middle;whiteSpace=wrap;rounded=0;" parent="bBHgA4-Q73oU8lgYVRvi-60" vertex="1">
          <mxGeometry x="34.84163701067616" y="150" width="125.65836298932385" height="30" as="geometry" />
        </mxCell>
        <mxCell id="LAP7pbj2NF0N0nWJ8ouf-668" value="food_id" style="text;html=1;strokeColor=none;fillColor=none;align=center;verticalAlign=middle;whiteSpace=wrap;rounded=0;" parent="bBHgA4-Q73oU8lgYVRvi-60" vertex="1">
          <mxGeometry x="34.84163701067616" y="30" width="125.65836298932385" height="30" as="geometry" />
        </mxCell>
        <mxCell id="LAP7pbj2NF0N0nWJ8ouf-669" value="food types" style="text;html=1;strokeColor=none;fillColor=none;align=center;verticalAlign=middle;whiteSpace=wrap;rounded=0;" parent="bBHgA4-Q73oU8lgYVRvi-60" vertex="1">
          <mxGeometry x="34.84163701067616" y="90" width="125.65836298932385" height="30" as="geometry" />
        </mxCell>
        <mxCell id="LAP7pbj2NF0N0nWJ8ouf-670" value="quantity" style="text;html=1;strokeColor=none;fillColor=none;align=center;verticalAlign=middle;whiteSpace=wrap;rounded=0;" parent="bBHgA4-Q73oU8lgYVRvi-60" vertex="1">
          <mxGeometry x="34.84163701067616" y="120" width="125.65836298932385" height="30" as="geometry" />
        </mxCell>
        <mxCell id="LAP7pbj2NF0N0nWJ8ouf-671" value="image_uri" style="text;html=1;strokeColor=none;fillColor=none;align=center;verticalAlign=middle;whiteSpace=wrap;rounded=0;" parent="bBHgA4-Q73oU8lgYVRvi-60" vertex="1">
          <mxGeometry x="34.84163701067616" y="240" width="125.65836298932385" height="30" as="geometry" />
        </mxCell>
        <mxCell id="LAP7pbj2NF0N0nWJ8ouf-672" value="" style="endArrow=none;html=1;rounded=0;" parent="bBHgA4-Q73oU8lgYVRvi-60" edge="1">
          <mxGeometry width="50" height="50" relative="1" as="geometry">
            <mxPoint y="480" as="sourcePoint" />
            <mxPoint x="159.9288256227758" y="480" as="targetPoint" />
          </mxGeometry>
        </mxCell>
        <mxCell id="LAP7pbj2NF0N0nWJ8ouf-674" value="pick_up_location" style="text;html=1;strokeColor=none;fillColor=none;align=center;verticalAlign=middle;whiteSpace=wrap;rounded=0;" parent="bBHgA4-Q73oU8lgYVRvi-60" vertex="1">
          <mxGeometry x="34.84163701067616" y="180" width="125.65836298932385" height="30" as="geometry" />
        </mxCell>
        <mxCell id="LAP7pbj2NF0N0nWJ8ouf-675" value="status" style="text;html=1;strokeColor=none;fillColor=none;align=center;verticalAlign=middle;whiteSpace=wrap;rounded=0;" parent="bBHgA4-Q73oU8lgYVRvi-60" vertex="1">
          <mxGeometry x="34.84163701067616" y="210" width="125.65836298932385" height="30" as="geometry" />
        </mxCell>
        <mxCell id="LAP7pbj2NF0N0nWJ8ouf-679" value="user_id" style="text;html=1;strokeColor=none;fillColor=none;align=center;verticalAlign=middle;whiteSpace=wrap;rounded=0;" parent="bBHgA4-Q73oU8lgYVRvi-60" vertex="1">
          <mxGeometry x="34.270462633451956" y="480" width="125.65836298932385" height="30" as="geometry" />
        </mxCell>
        <mxCell id="LAP7pbj2NF0N0nWJ8ouf-680" value="FK" style="text;html=1;strokeColor=none;fillColor=none;align=center;verticalAlign=middle;whiteSpace=wrap;rounded=0;fontStyle=1" parent="bBHgA4-Q73oU8lgYVRvi-60" vertex="1">
          <mxGeometry y="480" width="34.270462633451956" height="30" as="geometry" />
        </mxCell>
        <mxCell id="bBHgA4-Q73oU8lgYVRvi-53" value="expire_time" style="text;html=1;strokeColor=none;fillColor=none;align=center;verticalAlign=middle;whiteSpace=wrap;rounded=0;" parent="bBHgA4-Q73oU8lgYVRvi-60" vertex="1">
          <mxGeometry x="34.270462633451956" y="270" width="125.65836298932385" height="30" as="geometry" />
        </mxCell>
        <mxCell id="bBHgA4-Q73oU8lgYVRvi-54" value="created_by" style="text;html=1;strokeColor=none;fillColor=none;align=center;verticalAlign=middle;whiteSpace=wrap;rounded=0;" parent="bBHgA4-Q73oU8lgYVRvi-60" vertex="1">
          <mxGeometry x="34.270462633451956" y="300" width="125.65836298932385" height="30" as="geometry" />
        </mxCell>
        <mxCell id="bBHgA4-Q73oU8lgYVRvi-55" value="created_date" style="text;html=1;strokeColor=none;fillColor=none;align=center;verticalAlign=middle;whiteSpace=wrap;rounded=0;" parent="bBHgA4-Q73oU8lgYVRvi-60" vertex="1">
          <mxGeometry x="34.270462633451956" y="330" width="125.65836298932385" height="30" as="geometry" />
        </mxCell>
        <mxCell id="bBHgA4-Q73oU8lgYVRvi-56" value="modify_by" style="text;html=1;strokeColor=none;fillColor=none;align=center;verticalAlign=middle;whiteSpace=wrap;rounded=0;" parent="bBHgA4-Q73oU8lgYVRvi-60" vertex="1">
          <mxGeometry x="34.270462633451956" y="360" width="125.65836298932385" height="30" as="geometry" />
        </mxCell>
        <mxCell id="bBHgA4-Q73oU8lgYVRvi-57" value="food_image" style="text;html=1;strokeColor=none;fillColor=none;align=center;verticalAlign=middle;whiteSpace=wrap;rounded=0;" parent="bBHgA4-Q73oU8lgYVRvi-60" vertex="1">
          <mxGeometry x="34.270462633451956" y="390" width="125.65836298932385" height="30" as="geometry" />
        </mxCell>
        <mxCell id="bBHgA4-Q73oU8lgYVRvi-58" value="is_delete" style="text;html=1;strokeColor=none;fillColor=none;align=center;verticalAlign=middle;whiteSpace=wrap;rounded=0;" parent="bBHgA4-Q73oU8lgYVRvi-60" vertex="1">
          <mxGeometry x="34.270462633451956" y="420" width="125.65836298932385" height="30" as="geometry" />
        </mxCell>
        <mxCell id="bBHgA4-Q73oU8lgYVRvi-59" value="food_image" style="text;html=1;strokeColor=none;fillColor=none;align=center;verticalAlign=middle;whiteSpace=wrap;rounded=0;" parent="bBHgA4-Q73oU8lgYVRvi-60" vertex="1">
          <mxGeometry x="34.270462633451956" y="450" width="125.65836298932385" height="30" as="geometry" />
        </mxCell>
        <mxCell id="bBHgA4-Q73oU8lgYVRvi-104" value="" style="group" parent="1" vertex="1" connectable="0">
          <mxGeometry x="-550" y="701.25" width="175" height="330" as="geometry" />
        </mxCell>
        <mxCell id="bBHgA4-Q73oU8lgYVRvi-85" value="" style="endArrow=none;html=1;rounded=0;strokeWidth=1;endSize=6;jumpSize=6;exitX=0;exitY=1;exitDx=0;exitDy=0;" parent="bBHgA4-Q73oU8lgYVRvi-104" edge="1">
          <mxGeometry width="50" height="50" relative="1" as="geometry">
            <mxPoint x="37.5" y="330" as="sourcePoint" />
            <mxPoint x="37.5" y="30" as="targetPoint" />
          </mxGeometry>
        </mxCell>
        <mxCell id="bBHgA4-Q73oU8lgYVRvi-86" value="&lt;b&gt;&lt;font style=&quot;font-size: 16px;&quot;&gt;Reports&lt;/font&gt;&lt;/b&gt;" style="swimlane;fontStyle=0;childLayout=stackLayout;horizontal=1;startSize=30;horizontalStack=0;resizeParent=1;resizeParentMax=0;resizeLast=0;collapsible=1;marginBottom=0;whiteSpace=wrap;html=1;" parent="bBHgA4-Q73oU8lgYVRvi-104" vertex="1">
          <mxGeometry width="175" height="330" as="geometry" />
        </mxCell>
        <mxCell id="bBHgA4-Q73oU8lgYVRvi-87" value="" style="endArrow=none;html=1;rounded=0;" parent="bBHgA4-Q73oU8lgYVRvi-104" edge="1">
          <mxGeometry width="50" height="50" relative="1" as="geometry">
            <mxPoint y="60" as="sourcePoint" />
            <mxPoint x="175" y="60" as="targetPoint" />
          </mxGeometry>
        </mxCell>
        <mxCell id="bBHgA4-Q73oU8lgYVRvi-88" value="&lt;b&gt;PK&lt;/b&gt;" style="text;html=1;strokeColor=none;fillColor=none;align=center;verticalAlign=middle;whiteSpace=wrap;rounded=0;" parent="bBHgA4-Q73oU8lgYVRvi-104" vertex="1">
          <mxGeometry y="30" width="37.5" height="30" as="geometry" />
        </mxCell>
        <mxCell id="bBHgA4-Q73oU8lgYVRvi-90" value="report_id" style="text;html=1;strokeColor=none;fillColor=none;align=center;verticalAlign=middle;whiteSpace=wrap;rounded=0;" parent="bBHgA4-Q73oU8lgYVRvi-104" vertex="1">
          <mxGeometry x="37.5" y="30" width="137.5" height="28.05" as="geometry" />
        </mxCell>
        <mxCell id="bBHgA4-Q73oU8lgYVRvi-91" value="report_descriptions" style="text;html=1;strokeColor=none;fillColor=none;align=center;verticalAlign=middle;whiteSpace=wrap;rounded=0;" parent="bBHgA4-Q73oU8lgYVRvi-104" vertex="1">
          <mxGeometry x="37.5" y="90" width="137.5" height="30" as="geometry" />
        </mxCell>
        <mxCell id="bBHgA4-Q73oU8lgYVRvi-92" value="is_verify" style="text;html=1;strokeColor=none;fillColor=none;align=center;verticalAlign=middle;whiteSpace=wrap;rounded=0;" parent="bBHgA4-Q73oU8lgYVRvi-104" vertex="1">
          <mxGeometry x="37.5" y="120" width="137.5" height="30" as="geometry" />
        </mxCell>
        <mxCell id="bBHgA4-Q73oU8lgYVRvi-94" value="created_by" style="text;html=1;strokeColor=none;fillColor=none;align=center;verticalAlign=middle;whiteSpace=wrap;rounded=0;" parent="bBHgA4-Q73oU8lgYVRvi-104" vertex="1">
          <mxGeometry x="37.5" y="150" width="137.5" height="30" as="geometry" />
        </mxCell>
        <mxCell id="bBHgA4-Q73oU8lgYVRvi-95" value="complaint_for" style="text;html=1;strokeColor=none;fillColor=none;align=center;verticalAlign=middle;whiteSpace=wrap;rounded=0;" parent="bBHgA4-Q73oU8lgYVRvi-104" vertex="1">
          <mxGeometry x="37.5" y="58.049999999999955" width="137.5" height="31.95" as="geometry" />
        </mxCell>
        <mxCell id="bBHgA4-Q73oU8lgYVRvi-97" value="created_date" style="text;html=1;strokeColor=none;fillColor=none;align=center;verticalAlign=middle;whiteSpace=wrap;rounded=0;" parent="bBHgA4-Q73oU8lgYVRvi-104" vertex="1">
          <mxGeometry x="37.5" y="180" width="137.5" height="30" as="geometry" />
        </mxCell>
        <mxCell id="bBHgA4-Q73oU8lgYVRvi-98" value="modify_by" style="text;html=1;strokeColor=none;fillColor=none;align=center;verticalAlign=middle;whiteSpace=wrap;rounded=0;" parent="bBHgA4-Q73oU8lgYVRvi-104" vertex="1">
          <mxGeometry x="37.5" y="210" width="137.5" height="30" as="geometry" />
        </mxCell>
        <mxCell id="bBHgA4-Q73oU8lgYVRvi-99" value="modify_date" style="text;html=1;strokeColor=none;fillColor=none;align=center;verticalAlign=middle;whiteSpace=wrap;rounded=0;" parent="bBHgA4-Q73oU8lgYVRvi-104" vertex="1">
          <mxGeometry x="37.5" y="240" width="137.5" height="30" as="geometry" />
        </mxCell>
        <mxCell id="bBHgA4-Q73oU8lgYVRvi-100" value="is_delete" style="text;html=1;strokeColor=none;fillColor=none;align=center;verticalAlign=middle;whiteSpace=wrap;rounded=0;" parent="bBHgA4-Q73oU8lgYVRvi-104" vertex="1">
          <mxGeometry x="37.5" y="270" width="137.5" height="30" as="geometry" />
        </mxCell>
        <mxCell id="bBHgA4-Q73oU8lgYVRvi-102" value="FK" style="text;html=1;strokeColor=none;fillColor=none;align=center;verticalAlign=middle;whiteSpace=wrap;rounded=0;fontStyle=1" parent="bBHgA4-Q73oU8lgYVRvi-104" vertex="1">
          <mxGeometry y="300" width="37.5" height="30" as="geometry" />
        </mxCell>
        <mxCell id="bBHgA4-Q73oU8lgYVRvi-96" value="" style="endArrow=none;html=1;rounded=0;entryX=1;entryY=1;entryDx=0;entryDy=0;exitX=0;exitY=0;exitDx=0;exitDy=0;" parent="bBHgA4-Q73oU8lgYVRvi-104" source="bBHgA4-Q73oU8lgYVRvi-102" target="bBHgA4-Q73oU8lgYVRvi-100" edge="1">
          <mxGeometry width="50" height="50" relative="1" as="geometry">
            <mxPoint x="37.63749999999959" y="311.5999999999999" as="sourcePoint" />
            <mxPoint x="175" y="310" as="targetPoint" />
          </mxGeometry>
        </mxCell>
        <mxCell id="bBHgA4-Q73oU8lgYVRvi-103" value="food_id" style="text;html=1;strokeColor=none;fillColor=none;align=center;verticalAlign=middle;whiteSpace=wrap;rounded=0;fontStyle=0" parent="bBHgA4-Q73oU8lgYVRvi-104" vertex="1">
          <mxGeometry x="37.5" y="300" width="137.5" height="30" as="geometry" />
        </mxCell>
        <mxCell id="bBHgA4-Q73oU8lgYVRvi-105" value="" style="group" parent="1" vertex="1" connectable="0">
          <mxGeometry x="-800" y="581.25" width="162.5" height="418.75" as="geometry" />
        </mxCell>
        <mxCell id="LAP7pbj2NF0N0nWJ8ouf-723" value="" style="endArrow=none;html=1;rounded=0;strokeWidth=1;endSize=6;jumpSize=6;exitX=0;exitY=1;exitDx=0;exitDy=0;" parent="bBHgA4-Q73oU8lgYVRvi-105" source="bBHgA4-Q73oU8lgYVRvi-66" edge="1">
          <mxGeometry width="50" height="50" relative="1" as="geometry">
            <mxPoint x="34.82142857142857" y="448.8677884615384" as="sourcePoint" />
            <mxPoint x="34.82142857142857" y="32.21153846153846" as="targetPoint" />
          </mxGeometry>
        </mxCell>
        <mxCell id="LAP7pbj2NF0N0nWJ8ouf-724" value="&lt;b&gt;&lt;font style=&quot;font-size: 16px;&quot;&gt;History&lt;/font&gt;&lt;/b&gt;" style="swimlane;fontStyle=0;childLayout=stackLayout;horizontal=1;startSize=30;horizontalStack=0;resizeParent=1;resizeParentMax=0;resizeLast=0;collapsible=1;marginBottom=0;whiteSpace=wrap;html=1;" parent="bBHgA4-Q73oU8lgYVRvi-105" vertex="1">
          <mxGeometry width="162.5" height="416.65625" as="geometry" />
        </mxCell>
        <mxCell id="LAP7pbj2NF0N0nWJ8ouf-725" value="" style="endArrow=none;html=1;rounded=0;" parent="LAP7pbj2NF0N0nWJ8ouf-724" edge="1">
          <mxGeometry width="50" height="50" relative="1" as="geometry">
            <mxPoint y="60.00307692307692" as="sourcePoint" />
            <mxPoint x="162.5" y="60.00307692307692" as="targetPoint" />
          </mxGeometry>
        </mxCell>
        <mxCell id="LAP7pbj2NF0N0nWJ8ouf-726" value="&lt;b&gt;PK&lt;/b&gt;" style="text;html=1;strokeColor=none;fillColor=none;align=center;verticalAlign=middle;whiteSpace=wrap;rounded=0;" parent="bBHgA4-Q73oU8lgYVRvi-105" vertex="1">
          <mxGeometry y="32.21153846153846" width="34.82142857142857" height="32.21153846153846" as="geometry" />
        </mxCell>
        <mxCell id="LAP7pbj2NF0N0nWJ8ouf-729" value="image_url" style="text;html=1;strokeColor=none;fillColor=none;align=center;verticalAlign=middle;whiteSpace=wrap;rounded=0;" parent="bBHgA4-Q73oU8lgYVRvi-105" vertex="1">
          <mxGeometry x="34.82142857142857" y="161.0576923076923" width="127.67857142857144" height="32.21153846153846" as="geometry" />
        </mxCell>
        <mxCell id="LAP7pbj2NF0N0nWJ8ouf-730" value="history_id" style="text;html=1;strokeColor=none;fillColor=none;align=center;verticalAlign=middle;whiteSpace=wrap;rounded=0;" parent="bBHgA4-Q73oU8lgYVRvi-105" vertex="1">
          <mxGeometry x="34.82" y="32.21" width="127.68" height="27.79" as="geometry" />
        </mxCell>
        <mxCell id="LAP7pbj2NF0N0nWJ8ouf-731" value="destination" style="text;html=1;strokeColor=none;fillColor=none;align=center;verticalAlign=middle;whiteSpace=wrap;rounded=0;" parent="bBHgA4-Q73oU8lgYVRvi-105" vertex="1">
          <mxGeometry x="34.82" y="90" width="127.68" height="20" as="geometry" />
        </mxCell>
        <mxCell id="LAP7pbj2NF0N0nWJ8ouf-732" value="status" style="text;html=1;strokeColor=none;fillColor=none;align=center;verticalAlign=middle;whiteSpace=wrap;rounded=0;" parent="bBHgA4-Q73oU8lgYVRvi-105" vertex="1">
          <mxGeometry x="34.82" y="140" width="127.68" height="20" as="geometry" />
        </mxCell>
        <mxCell id="zX-LUn7_PTtVlo5h9AN5-6" value="stream_url" style="text;html=1;strokeColor=none;fillColor=none;align=center;verticalAlign=middle;whiteSpace=wrap;rounded=0;" parent="bBHgA4-Q73oU8lgYVRvi-105" vertex="1">
          <mxGeometry x="40.625" y="193.26923076923077" width="116.07142857142857" height="32.21153846153846" as="geometry" />
        </mxCell>
        <mxCell id="LAP7pbj2NF0N0nWJ8ouf-728" value="created_by" style="text;html=1;strokeColor=none;fillColor=none;align=center;verticalAlign=middle;whiteSpace=wrap;rounded=0;" parent="bBHgA4-Q73oU8lgYVRvi-105" vertex="1">
          <mxGeometry x="40.625" y="225.48076923076923" width="121.875" height="32.21153846153846" as="geometry" />
        </mxCell>
        <mxCell id="LAP7pbj2NF0N0nWJ8ouf-727" value="descriptions" style="text;html=1;strokeColor=none;fillColor=none;align=center;verticalAlign=middle;whiteSpace=wrap;rounded=0;" parent="bBHgA4-Q73oU8lgYVRvi-105" vertex="1">
          <mxGeometry x="34.82" y="60" width="127.68" height="30" as="geometry" />
        </mxCell>
        <mxCell id="bBHgA4-Q73oU8lgYVRvi-61" value="created_date" style="text;html=1;strokeColor=none;fillColor=none;align=center;verticalAlign=middle;whiteSpace=wrap;rounded=0;" parent="bBHgA4-Q73oU8lgYVRvi-105" vertex="1">
          <mxGeometry x="34.82142857142857" y="257.6923076923077" width="127.67857142857144" height="32.21153846153846" as="geometry" />
        </mxCell>
        <mxCell id="bBHgA4-Q73oU8lgYVRvi-62" value="modify_by" style="text;html=1;strokeColor=none;fillColor=none;align=center;verticalAlign=middle;whiteSpace=wrap;rounded=0;" parent="bBHgA4-Q73oU8lgYVRvi-105" vertex="1">
          <mxGeometry x="34.82142857142857" y="289.90384615384613" width="127.67857142857144" height="32.21153846153846" as="geometry" />
        </mxCell>
        <mxCell id="bBHgA4-Q73oU8lgYVRvi-63" value="modify_date" style="text;html=1;strokeColor=none;fillColor=none;align=center;verticalAlign=middle;whiteSpace=wrap;rounded=0;" parent="bBHgA4-Q73oU8lgYVRvi-105" vertex="1">
          <mxGeometry x="34.82142857142857" y="322.1153846153846" width="127.67857142857144" height="32.21153846153846" as="geometry" />
        </mxCell>
        <mxCell id="bBHgA4-Q73oU8lgYVRvi-64" value="is_delete" style="text;html=1;strokeColor=none;fillColor=none;align=center;verticalAlign=middle;whiteSpace=wrap;rounded=0;" parent="bBHgA4-Q73oU8lgYVRvi-105" vertex="1">
          <mxGeometry x="34.82142857142857" y="354.32692307692304" width="127.67857142857144" height="32.21153846153846" as="geometry" />
        </mxCell>
        <mxCell id="bBHgA4-Q73oU8lgYVRvi-106" style="edgeStyle=orthogonalEdgeStyle;rounded=0;orthogonalLoop=1;jettySize=auto;html=1;exitX=1;exitY=1;exitDx=0;exitDy=0;entryX=0;entryY=0.5;entryDx=0;entryDy=0;endArrow=ERzeroToMany;endFill=0;startArrow=ERmandOne;startFill=0;" parent="1" source="LAP7pbj2NF0N0nWJ8ouf-716" target="LAP7pbj2NF0N0nWJ8ouf-680" edge="1">
          <mxGeometry relative="1" as="geometry">
            <Array as="points">
              <mxPoint x="-300" y="120" />
              <mxPoint x="-300" y="1055" />
            </Array>
          </mxGeometry>
        </mxCell>
        <mxCell id="bBHgA4-Q73oU8lgYVRvi-107" style="edgeStyle=orthogonalEdgeStyle;rounded=0;orthogonalLoop=1;jettySize=auto;html=1;exitX=1;exitY=0.5;exitDx=0;exitDy=0;endArrow=ERmandOne;endFill=0;startArrow=ERmandOne;startFill=0;" parent="1" source="bBHgA4-Q73oU8lgYVRvi-66" edge="1">
          <mxGeometry relative="1" as="geometry">
            <Array as="points">
              <mxPoint x="-590" y="984" />
              <mxPoint x="-590" y="671" />
              <mxPoint x="-320" y="671" />
              <mxPoint x="-320" y="600" />
            </Array>
            <mxPoint x="-200" y="600" as="targetPoint" />
          </mxGeometry>
        </mxCell>
        <mxCell id="bBHgA4-Q73oU8lgYVRvi-109" style="edgeStyle=orthogonalEdgeStyle;rounded=0;orthogonalLoop=1;jettySize=auto;html=1;exitX=1;exitY=0.5;exitDx=0;exitDy=0;endArrow=ERmandOne;endFill=0;startArrow=ERzeroToOne;startFill=0;" parent="1" edge="1">
          <mxGeometry relative="1" as="geometry">
            <Array as="points">
              <mxPoint x="-240" y="1014" />
              <mxPoint x="-240" y="620" />
            </Array>
            <mxPoint x="-375.62" y="1013.72" as="sourcePoint" />
            <mxPoint x="-200" y="620" as="targetPoint" />
          </mxGeometry>
        </mxCell>
        <mxCell id="bBHgA4-Q73oU8lgYVRvi-41" value="" style="endArrow=none;html=1;rounded=0;entryX=1;entryY=0;entryDx=0;entryDy=0;" parent="1" edge="1">
          <mxGeometry width="50" height="50" relative="1" as="geometry">
            <mxPoint x="-800" y="971.25" as="sourcePoint" />
            <mxPoint x="-637.5" y="971.25" as="targetPoint" />
          </mxGeometry>
        </mxCell>
        <mxCell id="bBHgA4-Q73oU8lgYVRvi-66" value="food_id" style="text;html=1;strokeColor=none;fillColor=none;align=center;verticalAlign=middle;whiteSpace=wrap;rounded=0;" parent="1" vertex="1">
          <mxGeometry x="-765.1785714285714" y="969.3" width="127.67857142857144" height="30" as="geometry" />
        </mxCell>
        <mxCell id="bBHgA4-Q73oU8lgYVRvi-84" value="FK" style="text;html=1;strokeColor=none;fillColor=none;align=center;verticalAlign=middle;whiteSpace=wrap;rounded=0;fontStyle=1" parent="1" vertex="1">
          <mxGeometry x="-800" y="971.25" width="34.82142857142857" height="30" as="geometry" />
        </mxCell>
        <mxCell id="cgM_87C12Y7yPznh89Kv-17" value="rating_point" style="text;html=1;strokeColor=none;fillColor=none;align=center;verticalAlign=middle;whiteSpace=wrap;rounded=0;" parent="1" vertex="1">
          <mxGeometry x="-760" y="690" width="120" height="31.06" as="geometry" />
        </mxCell>
        <mxCell id="EEeil7ubf3lTbF9aTNJX-1" value="created_date" style="text;html=1;strokeColor=none;fillColor=none;align=center;verticalAlign=middle;whiteSpace=wrap;rounded=0;" vertex="1" parent="1">
          <mxGeometry x="-160" y="420" width="120" height="30" as="geometry" />
        </mxCell>
        <mxCell id="EEeil7ubf3lTbF9aTNJX-6" value="v" style="group" vertex="1" connectable="0" parent="1">
          <mxGeometry x="-200" y="30" width="160" height="220" as="geometry" />
        </mxCell>
        <mxCell id="EEeil7ubf3lTbF9aTNJX-7" value="" style="endArrow=none;html=1;rounded=0;strokeWidth=1;endSize=6;jumpSize=6;exitX=1;exitY=1;exitDx=0;exitDy=0;" edge="1" parent="EEeil7ubf3lTbF9aTNJX-6" source="EEeil7ubf3lTbF9aTNJX-17">
          <mxGeometry width="50" height="50" relative="1" as="geometry">
            <mxPoint x="34.285714285714285" y="192.49999999999997" as="sourcePoint" />
            <mxPoint x="34.285714285714285" y="27.5" as="targetPoint" />
          </mxGeometry>
        </mxCell>
        <mxCell id="EEeil7ubf3lTbF9aTNJX-8" value="&lt;b&gt;&lt;font style=&quot;font-size: 16px;&quot;&gt;Devices&lt;/font&gt;&lt;/b&gt;" style="swimlane;fontStyle=0;childLayout=stackLayout;horizontal=1;startSize=30;horizontalStack=0;resizeParent=1;resizeParentMax=0;resizeLast=0;collapsible=1;marginBottom=0;whiteSpace=wrap;html=1;" vertex="1" parent="EEeil7ubf3lTbF9aTNJX-6">
          <mxGeometry width="160" height="209.5238095238095" as="geometry" />
        </mxCell>
        <mxCell id="EEeil7ubf3lTbF9aTNJX-9" value="" style="endArrow=none;html=1;rounded=0;" edge="1" parent="EEeil7ubf3lTbF9aTNJX-6">
          <mxGeometry width="50" height="50" relative="1" as="geometry">
            <mxPoint y="55" as="sourcePoint" />
            <mxPoint x="160" y="55" as="targetPoint" />
          </mxGeometry>
        </mxCell>
        <mxCell id="EEeil7ubf3lTbF9aTNJX-10" value="&lt;b&gt;PK&lt;/b&gt;" style="text;html=1;strokeColor=none;fillColor=none;align=center;verticalAlign=middle;whiteSpace=wrap;rounded=0;" vertex="1" parent="EEeil7ubf3lTbF9aTNJX-6">
          <mxGeometry y="27.5" width="34.285714285714285" height="27.5" as="geometry" />
        </mxCell>
        <mxCell id="EEeil7ubf3lTbF9aTNJX-11" value="token" style="text;html=1;strokeColor=none;fillColor=none;align=center;verticalAlign=middle;whiteSpace=wrap;rounded=0;" vertex="1" parent="EEeil7ubf3lTbF9aTNJX-6">
          <mxGeometry x="40" y="55" width="120" height="35" as="geometry" />
        </mxCell>
        <mxCell id="EEeil7ubf3lTbF9aTNJX-12" value="notification_id" style="text;html=1;strokeColor=none;fillColor=none;align=center;verticalAlign=middle;whiteSpace=wrap;rounded=0;" vertex="1" parent="EEeil7ubf3lTbF9aTNJX-6">
          <mxGeometry x="34.285714285714285" y="27.5" width="125.71428571428571" height="27.5" as="geometry" />
        </mxCell>
        <mxCell id="EEeil7ubf3lTbF9aTNJX-14" value="created_by" style="text;html=1;strokeColor=none;fillColor=none;align=center;verticalAlign=middle;whiteSpace=wrap;rounded=0;" vertex="1" parent="EEeil7ubf3lTbF9aTNJX-6">
          <mxGeometry x="34.29" y="90" width="125.71" height="30" as="geometry" />
        </mxCell>
        <mxCell id="EEeil7ubf3lTbF9aTNJX-16" value="user_id" style="text;html=1;strokeColor=none;fillColor=none;align=center;verticalAlign=middle;whiteSpace=wrap;rounded=0;" vertex="1" parent="EEeil7ubf3lTbF9aTNJX-6">
          <mxGeometry x="34.29" y="170" width="125.71" height="40" as="geometry" />
        </mxCell>
        <mxCell id="EEeil7ubf3lTbF9aTNJX-17" value="&lt;b&gt;FK&lt;/b&gt;" style="text;html=1;strokeColor=none;fillColor=none;align=center;verticalAlign=middle;whiteSpace=wrap;rounded=0;" vertex="1" parent="EEeil7ubf3lTbF9aTNJX-6">
          <mxGeometry y="170" width="34.29" height="39.52" as="geometry" />
        </mxCell>
        <mxCell id="EEeil7ubf3lTbF9aTNJX-18" value="" style="endArrow=none;html=1;rounded=0;" edge="1" parent="1">
          <mxGeometry width="50" height="50" relative="1" as="geometry">
            <mxPoint x="-200" y="200" as="sourcePoint" />
            <mxPoint x="-40" y="200" as="targetPoint" />
          </mxGeometry>
        </mxCell>
        <mxCell id="EEeil7ubf3lTbF9aTNJX-19" value="created_date" style="text;html=1;strokeColor=none;fillColor=none;align=center;verticalAlign=middle;whiteSpace=wrap;rounded=0;" vertex="1" parent="1">
          <mxGeometry x="-160" y="150" width="110" height="40" as="geometry" />
        </mxCell>
        <mxCell id="EEeil7ubf3lTbF9aTNJX-22" style="edgeStyle=orthogonalEdgeStyle;rounded=0;orthogonalLoop=1;jettySize=auto;html=1;exitX=0;exitY=0.5;exitDx=0;exitDy=0;entryX=0.003;entryY=0.044;entryDx=0;entryDy=0;entryPerimeter=0;endArrow=ERmandOne;endFill=0;startArrow=ERmandOne;startFill=0;" edge="1" parent="1" source="bBHgA4-Q73oU8lgYVRvi-45" target="LAP7pbj2NF0N0nWJ8ouf-663">
          <mxGeometry relative="1" as="geometry">
            <Array as="points">
              <mxPoint x="-250" y="499" />
              <mxPoint x="-250" y="582" />
            </Array>
          </mxGeometry>
        </mxCell>
      </root>
    </mxGraphModel>
  </diagram>
</mxfile>
